# Blender 5.1.2
# www.blender.org
mtllib keykit key.mtl
o Cone
o Cube.001
v -0.026353 -0.077369 -0.013718
v -0.134336 -0.077398 -0.013718
v -0.026353 -0.077369 -0.044688
v -0.134336 -0.077398 -0.044688
v -0.026373 -0.002736 -0.013718
v -0.134356 -0.002764 -0.013718
v -0.026373 -0.002736 -0.044688
v -0.134356 -0.002764 -0.044688
v -0.118701 -0.196415 -0.055664
v -0.121784 0.210119 -0.055664
v -0.111404 -0.196360 -0.055156
v -0.114487 0.210175 -0.055156
v -0.104388 -0.196307 -0.053650
v -0.107471 0.210228 -0.053650
v -0.097922 -0.196258 -0.051204
v -0.101005 0.210277 -0.051204
v -0.092255 -0.196215 -0.047914
v -0.095338 0.210320 -0.047914
v -0.087603 -0.196179 -0.043904
v -0.090687 0.210355 -0.043904
v -0.084147 -0.196153 -0.039329
v -0.087230 0.210381 -0.039329
v -0.082019 -0.196137 -0.034365
v -0.085102 0.210397 -0.034365
v -0.081300 -0.196132 -0.029203
v -0.084383 0.210403 -0.029203
v -0.082019 -0.196137 -0.024040
v -0.085102 0.210397 -0.024040
v -0.084147 -0.196153 -0.019076
v -0.087230 0.210381 -0.019076
v -0.087603 -0.196179 -0.014501
v -0.090687 0.210355 -0.014501
v -0.092255 -0.196215 -0.010492
v -0.095338 0.210320 -0.010492
v -0.097922 -0.196258 -0.007201
v -0.101005 0.210277 -0.007201
v -0.104388 -0.196307 -0.004755
v -0.107471 0.210228 -0.004755
v -0.111404 -0.196360 -0.003250
v -0.114487 0.210175 -0.003250
v -0.118701 -0.196415 -0.002741
v -0.121784 0.210119 -0.002741
v -0.125997 -0.196471 -0.003250
v -0.129080 0.210064 -0.003250
v -0.133013 -0.196524 -0.004755
v -0.136096 0.210011 -0.004755
v -0.139479 -0.196573 -0.007201
v -0.142562 0.209962 -0.007201
v -0.145147 -0.196616 -0.010492
v -0.148230 0.209919 -0.010492
v -0.149798 -0.196651 -0.014501
v -0.152881 0.209883 -0.014501
v -0.153254 -0.196677 -0.019076
v -0.156337 0.209857 -0.019076
v -0.155382 -0.196693 -0.024040
v -0.158466 0.209841 -0.024040
v -0.156101 -0.196699 -0.029203
v -0.159184 0.209836 -0.029203
v -0.155382 -0.196693 -0.034365
v -0.158466 0.209841 -0.034365
v -0.153254 -0.196677 -0.039329
v -0.156337 0.209857 -0.039329
v -0.149798 -0.196651 -0.043904
v -0.152881 0.209883 -0.043904
v -0.145147 -0.196616 -0.047914
v -0.148230 0.209919 -0.047914
v -0.139479 -0.196573 -0.051204
v -0.142562 0.209962 -0.051204
v -0.133013 -0.196524 -0.053650
v -0.136096 0.210011 -0.053650
v -0.125997 -0.196471 -0.055156
v -0.129080 0.210064 -0.055156
v -0.000509 -0.196420 -0.013718
v -0.108492 -0.196449 -0.013718
v -0.000509 -0.196420 -0.044688
v -0.108492 -0.196449 -0.044688
v -0.000529 -0.121786 -0.013718
v -0.108512 -0.121815 -0.013718
v -0.000529 -0.121786 -0.044688
v -0.108512 -0.121815 -0.044688
v -0.120362 0.455675 -0.029203
v -0.120348 0.451969 -0.015371
v -0.120336 0.441844 -0.005246
v -0.120329 0.428012 -0.001540
v -0.120329 0.414181 -0.005246
v -0.120336 0.404056 -0.015371
v -0.120348 0.400350 -0.029203
v -0.120362 0.404056 -0.043034
v -0.120374 0.414181 -0.053159
v -0.120381 0.428012 -0.056865
v -0.120381 0.441844 -0.053159
v -0.120375 0.451969 -0.043034
v -0.138416 0.454487 -0.029185
v -0.137918 0.450813 -0.015355
v -0.136584 0.440775 -0.005230
v -0.134771 0.427062 -0.001526
v -0.132966 0.413349 -0.005234
v -0.131651 0.403311 -0.015360
v -0.131180 0.399637 -0.029192
v -0.131677 0.403311 -0.043023
v -0.133011 0.413349 -0.053147
v -0.134824 0.427062 -0.056852
v -0.136629 0.440775 -0.053144
v -0.137944 0.450813 -0.043017
v -0.156160 0.450953 -0.029169
v -0.155186 0.447373 -0.015338
v -0.152553 0.437594 -0.005215
v -0.148966 0.424234 -0.001513
v -0.145387 0.410875 -0.005222
v -0.142773 0.401096 -0.015350
v -0.141826 0.397516 -0.029182
v -0.142799 0.401096 -0.043013
v -0.145432 0.410875 -0.053136
v -0.149019 0.424234 -0.056838
v -0.152599 0.437594 -0.053129
v -0.155212 0.447373 -0.043001
v -0.173290 0.445133 -0.029152
v -0.171858 0.441709 -0.015322
v -0.167971 0.432355 -0.005201
v -0.162671 0.419578 -0.001500
v -0.157378 0.406801 -0.005211
v -0.153510 0.397448 -0.015340
v -0.152104 0.394024 -0.029172
v -0.153537 0.397448 -0.043003
v -0.157423 0.406801 -0.053124
v -0.162723 0.419578 -0.056825
v -0.168016 0.432355 -0.053114
v -0.171884 0.441709 -0.042985
v -0.189515 0.437126 -0.029137
v -0.187648 0.433917 -0.015307
v -0.182573 0.425150 -0.005187
v -0.175651 0.413173 -0.001487
v -0.168735 0.401197 -0.005200
v -0.163680 0.392429 -0.015330
v -0.161839 0.389220 -0.029163
v -0.163706 0.392429 -0.042993
v -0.168781 0.401197 -0.053113
v -0.175703 0.413173 -0.056813
v -0.182618 0.425150 -0.053100
v -0.187674 0.433917 -0.042970
v -0.204555 0.427071 -0.029123
v -0.202285 0.424131 -0.015293
v -0.196109 0.416100 -0.005174
v -0.187683 0.405129 -0.001476
v -0.179264 0.394158 -0.005190
v -0.173107 0.386126 -0.015321
v -0.170863 0.383187 -0.029155
v -0.173133 0.386126 -0.042984
v -0.179309 0.394158 -0.053103
v -0.187735 0.405129 -0.056802
v -0.196155 0.416100 -0.053087
v -0.202311 0.424131 -0.042956
v -0.218155 0.415138 -0.029110
v -0.215520 0.412518 -0.015281
v -0.208349 0.405360 -0.005162
v -0.198562 0.395582 -0.001466
v -0.188783 0.385805 -0.005181
v -0.181631 0.378647 -0.015313
v -0.179023 0.376027 -0.029147
v -0.181657 0.378647 -0.042976
v -0.188828 0.385805 -0.053094
v -0.198615 0.395582 -0.056791
v -0.208394 0.405360 -0.053076
v -0.215546 0.412518 -0.042944
v -0.230080 0.401532 -0.029099
v -0.227126 0.399277 -0.015270
v -0.219082 0.393115 -0.005152
v -0.208103 0.384698 -0.001457
v -0.197131 0.376281 -0.005173
v -0.189106 0.370119 -0.015306
v -0.186178 0.367864 -0.029140
v -0.189132 0.370119 -0.042969
v -0.197176 0.376281 -0.053087
v -0.208155 0.384698 -0.056782
v -0.219127 0.393115 -0.053066
v -0.227152 0.399277 -0.042933
v -0.240128 0.386486 -0.029089
v -0.236904 0.384634 -0.015261
v -0.228125 0.379574 -0.005144
v -0.216141 0.372661 -0.001449
v -0.204164 0.365749 -0.005166
v -0.195404 0.360688 -0.015300
v -0.192207 0.358836 -0.029134
v -0.195430 0.360688 -0.042963
v -0.204210 0.365749 -0.053080
v -0.216193 0.372661 -0.056775
v -0.228170 0.379574 -0.053057
v -0.236931 0.384634 -0.042924
v -0.248125 0.370257 -0.029081
v -0.244688 0.368840 -0.015253
v -0.235323 0.364968 -0.005137
v -0.222539 0.359678 -0.001443
v -0.209763 0.354388 -0.005161
v -0.200417 0.350516 -0.015295
v -0.197005 0.349099 -0.029130
v -0.200443 0.350516 -0.042958
v -0.209808 0.354388 -0.053075
v -0.222591 0.359678 -0.056769
v -0.235368 0.364968 -0.053050
v -0.244714 0.368840 -0.042916
v -0.253936 0.353124 -0.029076
v -0.250343 0.352165 -0.015248
v -0.240552 0.349547 -0.005132
v -0.227188 0.345971 -0.001438
v -0.213830 0.342395 -0.005157
v -0.204059 0.339777 -0.015292
v -0.200492 0.338819 -0.029127
v -0.204085 0.339777 -0.042955
v -0.213876 0.342395 -0.053071
v -0.227240 0.345971 -0.056764
v -0.240598 0.349547 -0.053045
v -0.250369 0.352165 -0.042911
v -0.257461 0.335378 -0.029073
v -0.253774 0.334895 -0.015245
v -0.243725 0.333576 -0.005129
v -0.230008 0.331775 -0.001436
v -0.216298 0.329973 -0.005155
v -0.206268 0.328654 -0.015290
v -0.202607 0.328171 -0.029125
v -0.206295 0.328654 -0.042953
v -0.216343 0.329973 -0.053068
v -0.230060 0.331775 -0.056761
v -0.243770 0.333576 -0.053042
v -0.253800 0.334895 -0.042908
v -0.258640 0.317324 -0.029071
v -0.254920 0.317325 -0.015244
v -0.244786 0.317328 -0.005128
v -0.230951 0.317331 -0.001435
v -0.217123 0.317335 -0.005154
v -0.207007 0.317338 -0.015289
v -0.203314 0.317339 -0.029124
v -0.207033 0.317338 -0.042952
v -0.217168 0.317335 -0.053068
v -0.231003 0.317331 -0.056761
v -0.244831 0.317328 -0.053041
v -0.254947 0.317325 -0.042906
v -0.257451 0.299271 -0.029073
v -0.253764 0.299755 -0.015245
v -0.243716 0.301080 -0.005129
v -0.230000 0.302889 -0.001436
v -0.216291 0.304698 -0.005155
v -0.206262 0.306022 -0.015290
v -0.202601 0.306507 -0.029125
v -0.206288 0.306022 -0.042953
v -0.216336 0.304698 -0.053068
v -0.230052 0.302889 -0.056761
v -0.243762 0.301080 -0.053042
v -0.253790 0.299755 -0.042908
v -0.253917 0.281527 -0.029076
v -0.250324 0.282487 -0.015248
v -0.240535 0.285110 -0.005132
v -0.227173 0.288694 -0.001438
v -0.213817 0.292277 -0.005157
v -0.204047 0.294900 -0.015292
v -0.200480 0.295861 -0.029127
v -0.204073 0.294900 -0.042955
v -0.213862 0.292277 -0.053071
v -0.227225 0.288694 -0.056764
v -0.240581 0.285110 -0.053045
v -0.250351 0.282487 -0.042911
v -0.248097 0.264396 -0.029081
v -0.244660 0.265815 -0.015253
v -0.235297 0.269693 -0.005137
v -0.222516 0.274989 -0.001443
v -0.209743 0.280286 -0.005161
v -0.200399 0.284163 -0.015295
v -0.196988 0.285582 -0.029130
v -0.200425 0.284163 -0.042958
v -0.209788 0.280286 -0.053075
v -0.222569 0.274989 -0.056769
v -0.235342 0.269693 -0.053050
v -0.244686 0.265815 -0.042916
v -0.240091 0.248172 -0.029089
v -0.236868 0.250026 -0.015261
v -0.228091 0.255091 -0.005144
v -0.216111 0.262010 -0.001449
v -0.204138 0.268929 -0.005166
v -0.195380 0.273994 -0.015300
v -0.192184 0.275847 -0.029134
v -0.195407 0.273994 -0.042963
v -0.204184 0.268929 -0.053080
v -0.216164 0.262010 -0.056775
v -0.228137 0.255091 -0.053057
v -0.236895 0.250026 -0.042924
v -0.230035 0.233131 -0.029099
v -0.227082 0.235388 -0.015270
v -0.219041 0.241554 -0.005152
v -0.208067 0.249977 -0.001457
v -0.197099 0.258400 -0.005173
v -0.189078 0.264566 -0.015306
v -0.186151 0.266823 -0.029140
v -0.189104 0.264566 -0.042969
v -0.197145 0.258400 -0.053087
v -0.208119 0.249977 -0.056782
v -0.219087 0.241554 -0.053066
v -0.227108 0.235388 -0.042933
v -0.218102 0.219532 -0.029110
v -0.215469 0.222153 -0.015281
v -0.208302 0.229315 -0.005162
v -0.198521 0.239098 -0.001466
v -0.188746 0.248881 -0.005181
v -0.181598 0.256042 -0.015313
v -0.178991 0.258663 -0.029147
v -0.181624 0.256042 -0.042976
v -0.188792 0.248881 -0.053094
v -0.198573 0.239098 -0.056791
v -0.208347 0.229315 -0.053076
v -0.215495 0.222153 -0.042944
v -0.204496 0.207606 -0.029123
v -0.202228 0.210547 -0.015293
v -0.196057 0.218582 -0.005174
v -0.187636 0.229557 -0.001476
v -0.179222 0.240533 -0.005190
v -0.173070 0.248567 -0.015321
v -0.170828 0.251508 -0.029155
v -0.173096 0.248567 -0.042984
v -0.179268 0.240533 -0.053103
v -0.187688 0.229557 -0.056802
v -0.196102 0.218582 -0.053087
v -0.202254 0.210547 -0.042956
v -0.189450 0.197559 -0.029137
v -0.187585 0.200769 -0.015307
v -0.182515 0.209539 -0.005187
v -0.175599 0.221519 -0.001487
v -0.168690 0.233499 -0.005200
v -0.163640 0.242270 -0.015330
v -0.161800 0.245480 -0.029163
v -0.163666 0.242270 -0.042993
v -0.168736 0.233499 -0.053113
v -0.175652 0.221519 -0.056813
v -0.182561 0.209539 -0.053100
v -0.187611 0.200769 -0.042970
v -0.173222 0.189561 -0.029152
v -0.171791 0.192985 -0.015322
v -0.167909 0.202341 -0.005201
v -0.162616 0.215121 -0.001500
v -0.157330 0.227901 -0.005211
v -0.153467 0.237257 -0.015340
v -0.152063 0.240681 -0.029172
v -0.153494 0.237257 -0.043003
v -0.157376 0.227901 -0.053124
v -0.162669 0.215121 -0.056825
v -0.167955 0.202341 -0.053114
v -0.171818 0.192985 -0.042985
v -0.156088 0.183750 -0.029169
v -0.155117 0.187330 -0.015338
v -0.152489 0.197111 -0.005215
v -0.148909 0.210472 -0.001513
v -0.145336 0.223833 -0.005222
v -0.142728 0.233614 -0.015350
v -0.141783 0.237194 -0.029182
v -0.142754 0.233614 -0.043013
v -0.145382 0.223833 -0.053136
v -0.148962 0.210472 -0.056838
v -0.152534 0.197111 -0.053129
v -0.155143 0.187330 -0.043001
v -0.138342 0.180225 -0.029185
v -0.137846 0.183900 -0.015355
v -0.136518 0.193939 -0.005230
v -0.134713 0.207652 -0.001526
v -0.132915 0.221366 -0.005234
v -0.131605 0.231405 -0.015360
v -0.131136 0.235080 -0.029192
v -0.131631 0.231405 -0.043023
v -0.132960 0.221366 -0.053147
v -0.134765 0.207652 -0.056852
v -0.136563 0.193939 -0.053144
v -0.137873 0.183900 -0.043017
v -0.120288 0.179047 -0.029203
v -0.120276 0.182753 -0.015371
v -0.120269 0.192878 -0.005246
v -0.120270 0.206710 -0.001540
v -0.120277 0.220541 -0.005246
v -0.120289 0.230666 -0.015371
v -0.120303 0.234372 -0.029203
v -0.120315 0.230666 -0.043034
v -0.120322 0.220541 -0.053159
v -0.120322 0.206710 -0.056865
v -0.120315 0.192878 -0.053159
v -0.120302 0.182753 -0.043034
v -0.102235 0.180235 -0.029220
v -0.102707 0.183909 -0.015388
v -0.104021 0.193947 -0.005261
v -0.105827 0.207660 -0.001553
v -0.107639 0.221373 -0.005258
v -0.108973 0.231411 -0.015382
v -0.109471 0.235085 -0.029213
v -0.109000 0.231411 -0.043045
v -0.107685 0.221373 -0.053171
v -0.105879 0.207660 -0.056879
v -0.104067 0.193947 -0.053175
v -0.102733 0.183909 -0.043051
v -0.084491 0.183769 -0.029237
v -0.085438 0.187349 -0.015404
v -0.088052 0.197128 -0.005276
v -0.091632 0.210488 -0.001567
v -0.095219 0.223847 -0.005270
v -0.097852 0.233626 -0.015392
v -0.098825 0.237206 -0.029223
v -0.097878 0.233626 -0.043055
v -0.095264 0.223847 -0.053183
v -0.091684 0.210488 -0.056893
v -0.088097 0.197128 -0.053190
v -0.085465 0.187349 -0.043067
v -0.067361 0.189589 -0.029253
v -0.068767 0.193013 -0.015420
v -0.072634 0.202367 -0.005291
v -0.077927 0.215144 -0.001580
v -0.083227 0.227921 -0.005281
v -0.087114 0.237274 -0.015403
v -0.088547 0.240698 -0.029233
v -0.087140 0.237274 -0.043065
v -0.083273 0.227921 -0.053194
v -0.077980 0.215144 -0.056906
v -0.072680 0.202367 -0.053204
v -0.068793 0.193013 -0.043083
v -0.051136 0.197596 -0.029268
v -0.052977 0.200805 -0.015435
v -0.058032 0.209572 -0.005305
v -0.064948 0.221549 -0.001592
v -0.071870 0.233525 -0.005292
v -0.076945 0.242293 -0.015412
v -0.078812 0.245502 -0.029242
v -0.076971 0.242293 -0.043075
v -0.071916 0.233525 -0.053205
v -0.065000 0.221549 -0.056918
v -0.058078 0.209572 -0.053218
v -0.053003 0.200805 -0.043098
v -0.036096 0.207651 -0.029282
v -0.038339 0.210591 -0.015449
v -0.044496 0.218622 -0.005318
v -0.052915 0.229593 -0.001604
v -0.061342 0.240564 -0.005302
v -0.067518 0.248596 -0.015421
v -0.069788 0.251535 -0.029250
v -0.067544 0.248596 -0.043084
v -0.061387 0.240564 -0.053215
v -0.052968 0.229593 -0.056929
v -0.044541 0.218622 -0.053231
v -0.038366 0.210591 -0.043112
v -0.022496 0.219584 -0.029295
v -0.025105 0.222204 -0.015461
v -0.032257 0.229362 -0.005329
v -0.042036 0.239140 -0.001614
v -0.051822 0.248917 -0.005311
v -0.058994 0.256075 -0.015429
v -0.061628 0.258695 -0.029258
v -0.059020 0.256075 -0.043092
v -0.051868 0.248917 -0.053224
v -0.042088 0.239140 -0.056940
v -0.032302 0.229362 -0.053243
v -0.025131 0.222204 -0.043124
v -0.010571 0.233190 -0.029307
v -0.013499 0.235445 -0.015472
v -0.021524 0.241607 -0.005339
v -0.032496 0.250024 -0.001623
v -0.043475 0.258441 -0.005319
v -0.051519 0.264603 -0.015436
v -0.054473 0.266858 -0.029265
v -0.051545 0.264603 -0.043099
v -0.043520 0.258441 -0.053232
v -0.032548 0.250024 -0.056949
v -0.021569 0.241607 -0.053253
v -0.013525 0.235445 -0.043135
v -0.000523 0.248236 -0.029316
v -0.003720 0.250088 -0.015482
v -0.012481 0.255148 -0.005348
v -0.024457 0.262061 -0.001631
v -0.036441 0.268973 -0.005325
v -0.045221 0.274034 -0.015442
v -0.048444 0.275886 -0.029271
v -0.045247 0.274034 -0.043105
v -0.036487 0.268973 -0.053239
v -0.024510 0.262061 -0.056956
v -0.012526 0.255148 -0.053261
v -0.003746 0.250088 -0.043144
v 0.007474 0.264465 -0.029324
v 0.004063 0.265882 -0.015489
v -0.005283 0.269754 -0.005355
v -0.018059 0.275044 -0.001637
v -0.030843 0.280334 -0.005331
v -0.040208 0.284206 -0.015447
v -0.043645 0.285623 -0.029275
v -0.040234 0.284206 -0.043110
v -0.030888 0.280334 -0.053244
v -0.018112 0.275044 -0.056962
v -0.005328 0.269754 -0.053268
v 0.004037 0.265882 -0.043152
v 0.013285 0.281598 -0.029329
v 0.009718 0.282557 -0.015494
v -0.000053 0.285175 -0.005360
v -0.013411 0.288751 -0.001641
v -0.026775 0.292327 -0.005334
v -0.036566 0.294945 -0.015451
v -0.040159 0.295903 -0.029279
v -0.036592 0.294945 -0.043113
v -0.026821 0.292327 -0.053248
v -0.013463 0.288751 -0.056967
v -0.000098 0.285175 -0.053273
v 0.009692 0.282557 -0.043157
v 0.016810 0.299344 -0.029333
v 0.013149 0.299827 -0.015498
v 0.003119 0.301146 -0.005363
v -0.010591 0.302947 -0.001644
v -0.024308 0.304749 -0.005337
v -0.034356 0.306068 -0.015453
v -0.038044 0.306551 -0.029281
v -0.034383 0.306068 -0.043115
v -0.024353 0.304749 -0.053250
v -0.010643 0.302947 -0.056969
v 0.003074 0.301146 -0.053276
v 0.013123 0.299827 -0.043160
v 0.017989 0.317398 -0.029334
v 0.014296 0.317397 -0.015499
v 0.004180 0.317394 -0.005364
v -0.009648 0.317391 -0.001645
v -0.023483 0.317387 -0.005338
v -0.033618 0.317384 -0.015453
v -0.037337 0.317383 -0.029281
v -0.033644 0.317384 -0.043116
v -0.023528 0.317387 -0.053251
v -0.009700 0.317391 -0.056970
v 0.004135 0.317394 -0.053277
v 0.014270 0.317397 -0.043162
v 0.016801 0.335451 -0.029333
v 0.013140 0.334967 -0.015498
v 0.003111 0.333642 -0.005363
v -0.010598 0.331833 -0.001644
v -0.024314 0.330024 -0.005337
v -0.034362 0.328700 -0.015453
v -0.038050 0.328215 -0.029281
v -0.034389 0.328700 -0.043115
v -0.024360 0.330024 -0.053250
v -0.010651 0.331833 -0.056969
v 0.003065 0.333642 -0.053276
v 0.013113 0.334967 -0.043160
v 0.013266 0.353195 -0.029329
v 0.009700 0.352235 -0.015494
v -0.000070 0.349612 -0.005360
v -0.013426 0.346028 -0.001641
v -0.026788 0.342445 -0.005334
v -0.036578 0.339822 -0.015451
v -0.040170 0.338861 -0.029279
v -0.036604 0.339822 -0.043113
v -0.026834 0.342445 -0.053248
v -0.013478 0.346028 -0.056967
v -0.000116 0.349612 -0.053273
v 0.009674 0.352235 -0.043157
v 0.007446 0.370326 -0.029324
v 0.004036 0.368907 -0.015489
v -0.005308 0.365029 -0.005355
v -0.018082 0.359733 -0.001637
v -0.030863 0.354436 -0.005331
v -0.040226 0.350559 -0.015447
v -0.043662 0.349140 -0.029275
v -0.040252 0.350559 -0.043110
v -0.030908 0.354436 -0.053244
v -0.018134 0.359733 -0.056962
v -0.005354 0.365029 -0.053268
v 0.004009 0.368907 -0.043152
v -0.000560 0.386550 -0.029316
v -0.003756 0.384696 -0.015482
v -0.012514 0.379631 -0.005348
v -0.024487 0.372712 -0.001631
v -0.036467 0.365793 -0.005325
v -0.045244 0.360728 -0.015442
v -0.048466 0.358874 -0.029271
v -0.045270 0.360728 -0.043105
v -0.036513 0.365793 -0.053239
v -0.024540 0.372712 -0.056956
v -0.012559 0.379631 -0.053261
v -0.003782 0.384696 -0.043144
v -0.010616 0.401591 -0.029307
v -0.013542 0.399334 -0.015472
v -0.021564 0.393168 -0.005339
v -0.032532 0.384745 -0.001623
v -0.043506 0.376322 -0.005319
v -0.051547 0.370156 -0.015436
v -0.054500 0.367899 -0.029265
v -0.051573 0.370156 -0.043099
v -0.043551 0.376322 -0.053232
v -0.032584 0.384745 -0.056949
v -0.021610 0.393168 -0.053253
v -0.013569 0.399334 -0.043135
v -0.022549 0.415190 -0.029295
v -0.025155 0.412569 -0.015461
v -0.032304 0.405407 -0.005329
v -0.042078 0.395624 -0.001614
v -0.051859 0.385841 -0.005311
v -0.059026 0.378680 -0.015429
v -0.061659 0.376058 -0.029258
v -0.059053 0.378680 -0.043092
v -0.051904 0.385841 -0.053224
v -0.042130 0.395624 -0.056940
v -0.032349 0.405407 -0.053243
v -0.025182 0.412569 -0.043124
v -0.036154 0.427116 -0.029282
v -0.038397 0.424175 -0.015449
v -0.044549 0.416140 -0.005318
v -0.052962 0.405165 -0.001604
v -0.061383 0.394189 -0.005302
v -0.067554 0.386155 -0.015421
v -0.069823 0.383214 -0.029250
v -0.067581 0.386155 -0.043084
v -0.061428 0.394189 -0.053215
v -0.053015 0.405165 -0.056929
v -0.044594 0.416140 -0.053231
v -0.038423 0.424175 -0.043112
v -0.051200 0.437163 -0.029268
v -0.053039 0.433953 -0.015435
v -0.058090 0.425183 -0.005305
v -0.064999 0.413203 -0.001592
v -0.071915 0.401223 -0.005292
v -0.076985 0.392452 -0.015412
v -0.078850 0.389242 -0.029242
v -0.077011 0.392452 -0.043075
v -0.071961 0.401222 -0.053205
v -0.065052 0.413203 -0.056918
v -0.058136 0.425183 -0.053218
v -0.053066 0.433953 -0.043098
v -0.067429 0.445161 -0.029253
v -0.068833 0.441736 -0.015420
v -0.072696 0.432381 -0.005291
v -0.077982 0.419601 -0.001580
v -0.083275 0.406821 -0.005281
v -0.087157 0.397465 -0.015403
v -0.088588 0.394041 -0.029233
v -0.087183 0.397465 -0.043065
v -0.083321 0.406821 -0.053194
v -0.078034 0.419601 -0.056906
v -0.072741 0.432381 -0.053204
v -0.068859 0.441736 -0.043083
v -0.084563 0.450972 -0.029237
v -0.085508 0.447392 -0.015404
v -0.088116 0.437611 -0.005276
v -0.091689 0.424250 -0.001567
v -0.095269 0.410889 -0.005270
v -0.097897 0.401108 -0.015392
v -0.098868 0.397528 -0.029223
v -0.097923 0.401108 -0.043055
v -0.095314 0.410889 -0.053183
v -0.091742 0.424250 -0.056893
v -0.088162 0.437611 -0.053190
v -0.085534 0.447392 -0.043067
v -0.102308 0.454497 -0.029220
v -0.102778 0.450822 -0.015388
v -0.104087 0.440783 -0.005261
v -0.105886 0.427070 -0.001553
v -0.107691 0.413356 -0.005258
v -0.109019 0.403317 -0.015382
v -0.109515 0.399642 -0.029213
v -0.109046 0.403317 -0.043045
v -0.107736 0.413356 -0.053171
v -0.105938 0.427070 -0.056879
v -0.104133 0.440783 -0.053175
v -0.102804 0.450822 -0.043051
vn 0.0003 -1.0000 -0.0000
vn -0.0000 -0.0000 -1.0000
vn -0.0003 1.0000 -0.0000
vn -0.0000 -0.0000 1.0000
vn 1.0000 0.0003 -0.0000
vn -1.0000 -0.0003 -0.0000
vn 0.0024 -0.3406 -0.9402
vn -0.0024 0.3406 -0.9402
vn 0.1215 0.3760 -0.9186
vn 0.1268 -0.3737 -0.9188
vn 0.2400 0.4617 -0.8539
vn 0.2467 -0.4575 -0.8543
vn 0.3445 0.5626 -0.7516
vn 0.3528 -0.5569 -0.7519
vn 0.4294 0.6545 -0.6223
vn 0.4392 -0.6477 -0.6226
vn 0.4935 0.7277 -0.4763
vn 0.5045 -0.7200 -0.4765
vn 0.5377 0.7796 -0.3211
vn 0.5495 -0.7712 -0.3213
vn 0.5635 0.8102 -0.1615
vn 0.5758 -0.8015 -0.1615
vn 0.5719 0.8203 -0.0000
vn 0.5844 -0.8115 -0.0000
vn 0.5635 0.8102 0.1615
vn 0.5758 -0.8015 0.1615
vn 0.5377 0.7796 0.3211
vn 0.5495 -0.7712 0.3213
vn 0.4935 0.7277 0.4763
vn 0.5045 -0.7200 0.4765
vn 0.4294 0.6545 0.6223
vn 0.4392 -0.6477 0.6226
vn 0.3445 0.5626 0.7516
vn 0.3528 -0.5569 0.7519
vn 0.2400 0.4617 0.8539
vn 0.2467 -0.4575 0.8543
vn 0.1215 0.3760 0.9186
vn 0.1268 -0.3737 0.9188
vn -0.0024 0.3406 0.9402
vn 0.0024 -0.3406 0.9402
vn -0.1268 0.3737 0.9188
vn -0.1215 -0.3760 0.9186
vn -0.2467 0.4575 0.8543
vn -0.2400 -0.4617 0.8539
vn -0.3528 0.5569 0.7519
vn -0.3445 -0.5626 0.7516
vn -0.4392 0.6477 0.6226
vn -0.4294 -0.6545 0.6223
vn -0.5045 0.7200 0.4765
vn -0.4935 -0.7277 0.4763
vn -0.5495 0.7712 0.3213
vn -0.5377 -0.7796 0.3211
vn -0.5758 0.8015 0.1615
vn -0.5635 -0.8102 0.1615
vn -0.5844 0.8115 -0.0000
vn -0.5719 -0.8203 -0.0000
vn -0.5758 0.8015 -0.1615
vn -0.5635 -0.8102 -0.1615
vn -0.5495 0.7712 -0.3213
vn -0.5377 -0.7796 -0.3211
vn -0.5045 0.7200 -0.4765
vn -0.4935 -0.7277 -0.4763
vn -0.4392 0.6477 -0.6226
vn -0.4294 -0.6545 -0.6223
vn -0.3528 0.5569 -0.7519
vn -0.3445 -0.5626 -0.7516
vn -0.2467 0.4575 -0.8543
vn -0.2400 -0.4617 -0.8539
vn -0.1268 0.3737 -0.9188
vn -0.1215 -0.3760 -0.9186
vn -0.1298 0.9915 0.0002
vn -0.1100 0.8444 0.5244
vn 0.0003 0.8517 0.5240
vn -0.0581 0.4488 0.8917
vn 0.0007 0.4535 0.8913
vn -0.0017 0.0131 0.9999
vn 0.0009 0.0135 0.9999
vn 0.0579 -0.4328 0.8996
vn 0.0010 -0.4369 0.8995
vn 0.1113 -0.8403 0.5306
vn 0.0007 -0.8476 0.5306
vn 0.1306 -0.9914 -0.0001
vn 0.1103 -0.8403 -0.5308
vn -0.0003 -0.8476 -0.5306
vn 0.0562 -0.4328 -0.8998
vn -0.0008 -0.4369 -0.8995
vn -0.0036 0.0129 -0.9999
vn -0.0009 0.0135 -0.9999
vn -0.0597 0.4488 -0.8916
vn -0.0009 0.4535 -0.8913
vn -0.1110 0.8444 -0.5241
vn -0.0007 0.8517 -0.5240
vn -0.2572 0.9663 0.0003
vn -0.2184 0.8225 0.5252
vn -0.1153 0.4352 0.8929
vn -0.0040 0.0116 0.9999
vn 0.1137 -0.4207 0.9001
vn 0.2200 -0.8186 0.5305
vn 0.2588 -0.9659 -0.0003
vn 0.2190 -0.8186 -0.5310
vn 0.1119 -0.4207 -0.9003
vn -0.0058 0.0114 -0.9999
vn -0.1170 0.4353 -0.8927
vn -0.2194 0.8226 -0.5247
vn -0.3806 0.9247 0.0004
vn -0.3231 0.7866 0.5262
vn -0.1696 0.4135 0.8946
vn -0.0056 0.0096 0.9999
vn 0.1671 -0.4009 0.9008
vn 0.3250 -0.7829 0.5305
vn 0.3827 -0.9239 -0.0004
vn 0.3240 -0.7829 -0.5312
vn 0.1653 -0.4009 -0.9011
vn -0.0074 0.0092 -0.9999
vn -0.1713 0.4135 -0.8942
vn -0.3241 0.7867 -0.5255
vn -0.4977 0.8673 0.0006
vn -0.4224 0.7373 0.5273
vn -0.2201 0.3846 0.8965
vn -0.0066 0.0073 1.0000
vn 0.2171 -0.3741 0.9016
vn 0.4244 -0.7337 0.5306
vn 0.5000 -0.8660 -0.0005
vn 0.4234 -0.7337 -0.5315
vn 0.2153 -0.3741 -0.9021
vn -0.0082 0.0069 -0.9999
vn -0.2219 0.3847 -0.8960
vn -0.4234 0.7373 -0.5263
vn -0.6066 0.7950 0.0007
vn -0.5146 0.6754 0.5283
vn -0.2661 0.3496 0.8983
vn -0.0070 0.0052 1.0000
vn 0.2629 -0.3409 0.9026
vn 0.5165 -0.6719 0.5308
vn 0.6088 -0.7933 -0.0006
vn 0.5155 -0.6719 -0.5318
vn 0.2611 -0.3409 -0.9031
vn -0.0086 0.0048 -1.0000
vn -0.2679 0.3497 -0.8977
vn -0.5156 0.6755 -0.5272
vn -0.7052 0.7090 0.0008
vn -0.5980 0.6020 0.5291
vn -0.3070 0.3095 0.9000
vn -0.0070 0.0034 1.0000
vn 0.3037 -0.3023 0.9035
vn 0.5998 -0.5986 0.5310
vn 0.7072 -0.7070 -0.0007
vn 0.5987 -0.5986 -0.5322
vn 0.3020 -0.3022 -0.9041
vn -0.0084 0.0030 -1.0000
vn -0.3088 0.3096 -0.8993
vn -0.5991 0.6020 -0.5278
vn -0.7919 0.6106 0.0008
vn -0.6713 0.5183 0.5298
vn -0.3425 0.2648 0.9014
vn -0.0067 0.0020 1.0000
vn 0.3391 -0.2589 0.9044
vn 0.6727 -0.5152 0.5311
vn 0.7935 -0.6086 -0.0008
vn 0.6716 -0.5151 -0.5325
vn 0.3373 -0.2589 -0.9051
vn -0.0080 0.0016 -1.0000
vn -0.3443 0.2649 -0.9007
vn -0.6724 0.5184 -0.5284
vn -0.8650 0.5017 0.0009
vn -0.7332 0.4257 0.5303
vn -0.3722 0.2165 0.9026
vn -0.0063 0.0011 1.0000
vn 0.3686 -0.2117 0.9052
vn 0.7340 -0.4229 0.5313
vn 0.8662 -0.4998 -0.0009
vn 0.7330 -0.4229 -0.5328
vn 0.3667 -0.2117 -0.9059
vn -0.0075 0.0007 -1.0000
vn -0.3740 0.2166 -0.9018
vn -0.7342 0.4258 -0.5288
vn -0.9233 0.3840 0.0010
vn -0.7824 0.3258 0.5307
vn -0.3956 0.1651 0.9034
vn -0.0058 0.0004 1.0000
vn 0.3918 -0.1614 0.9058
vn 0.7828 -0.3236 0.5315
vn 0.9240 -0.3824 -0.0009
vn 0.7818 -0.3235 -0.5330
vn 0.3900 -0.1614 -0.9066
vn -0.0070 0.0001 -1.0000
vn -0.3975 0.1652 -0.9026
vn -0.7835 0.3259 -0.5291
vn -0.9657 0.2597 0.0010
vn -0.8183 0.2203 0.5310
vn -0.4127 0.1114 0.9041
vn -0.0054 0.0001 1.0000
vn 0.4085 -0.1088 0.9062
vn 0.8183 -0.2187 0.5316
vn 0.9660 -0.2585 -0.0010
vn 0.8172 -0.2187 -0.5332
vn 0.4067 -0.1088 -0.9071
vn -0.0066 -0.0001 -1.0000
vn -0.4145 0.1114 -0.9032
vn -0.8194 0.2203 -0.5292
vn -0.9914 0.1309 0.0010
vn -0.8400 0.1110 0.5311
vn -0.4230 0.0560 0.9044
vn -0.0052 -0.0000 1.0000
vn 0.4186 -0.0547 0.9065
vn 0.8398 -0.1102 0.5316
vn 0.9915 -0.1302 -0.0010
vn 0.8387 -0.1102 -0.5333
vn 0.4168 -0.0547 -0.9074
vn -0.0063 -0.0001 -1.0000
vn -0.4249 0.0560 -0.9035
vn -0.8411 0.1110 -0.5293
vn -1.0000 -0.0003 0.0010
vn -0.8473 -0.0002 0.5311
vn -0.4264 -0.0001 0.9045
vn -0.0051 -0.0000 1.0000
vn 0.4220 0.0001 0.9066
vn 0.8470 0.0002 0.5317
vn 1.0000 0.0003 -0.0010
vn 0.8459 0.0002 -0.5334
vn 0.4202 0.0001 -0.9074
vn -0.0062 -0.0000 -1.0000
vn -0.4283 -0.0001 -0.9036
vn -0.8484 -0.0002 -0.5294
vn -0.9913 -0.1314 0.0010
vn -0.8399 -0.1115 0.5311
vn -0.4229 -0.0562 0.9044
vn 0.4186 0.0550 0.9065
vn 0.8397 0.1106 0.5316
vn 0.9914 0.1308 -0.0010
vn 0.8386 0.1106 -0.5333
vn 0.4168 0.0549 -0.9074
vn -0.0063 0.0001 -1.0000
vn -0.4248 -0.0563 -0.9035
vn -0.8411 -0.1115 -0.5293
vn -0.9655 -0.2602 0.0010
vn -0.8181 -0.2208 0.5310
vn -0.4126 -0.1116 0.9041
vn -0.0054 -0.0001 1.0000
vn 0.4085 0.1090 0.9062
vn 0.8182 0.2191 0.5316
vn 0.9659 0.2590 -0.0010
vn 0.8171 0.2191 -0.5332
vn 0.4066 0.1090 -0.9071
vn -0.0066 0.0001 -1.0000
vn -0.4145 -0.1116 -0.9032
vn -0.8192 -0.2208 -0.5292
vn -0.9231 -0.3845 0.0010
vn -0.7823 -0.3262 0.5307
vn -0.3956 -0.1653 0.9034
vn -0.0058 -0.0004 1.0000
vn 0.3917 0.1616 0.9058
vn 0.7827 0.3240 0.5315
vn 0.9238 0.3829 -0.0009
vn 0.7816 0.3240 -0.5330
vn 0.3899 0.1616 -0.9066
vn -0.0070 -0.0001 -1.0000
vn -0.3974 -0.1654 -0.9026
vn -0.7834 -0.3263 -0.5291
vn -0.8648 -0.5022 0.0009
vn -0.7329 -0.4261 0.5303
vn -0.3720 -0.2167 0.9026
vn -0.0063 -0.0011 1.0000
vn 0.3684 0.2119 0.9052
vn 0.7338 0.4233 0.5313
vn 0.8659 0.5002 -0.0009
vn 0.7328 0.4233 -0.5328
vn 0.3666 0.2118 -0.9059
vn -0.0075 -0.0007 -1.0000
vn -0.3739 -0.2168 -0.9018
vn -0.7340 -0.4262 -0.5288
vn -0.7916 -0.6111 0.0008
vn -0.6710 -0.5186 0.5298
vn -0.3424 -0.2650 0.9014
vn -0.0067 -0.0020 1.0000
vn 0.3390 0.2591 0.9044
vn 0.6724 0.5155 0.5311
vn 0.7932 0.6090 -0.0008
vn 0.6714 0.5155 -0.5325
vn 0.3372 0.2591 -0.9051
vn -0.0080 -0.0016 -1.0000
vn -0.3442 -0.2651 -0.9007
vn -0.6721 -0.5187 -0.5284
vn -0.7049 -0.7093 0.0008
vn -0.5977 -0.6023 0.5291
vn -0.3069 -0.3096 0.9000
vn -0.0070 -0.0034 1.0000
vn 0.3036 0.3024 0.9035
vn 0.5994 0.5990 0.5310
vn 0.7068 0.7074 -0.0007
vn 0.5984 0.5989 -0.5322
vn 0.3018 0.3024 -0.9041
vn -0.0084 -0.0030 -1.0000
vn -0.3086 -0.3097 -0.8993
vn -0.5988 -0.6024 -0.5278
vn -0.6062 -0.7953 0.0007
vn -0.5142 -0.6756 0.5283
vn -0.2659 -0.3498 0.8983
vn -0.0070 -0.0052 1.0000
vn 0.2627 0.3411 0.9026
vn 0.5162 0.6722 0.5308
vn 0.6084 0.7936 -0.0006
vn 0.5152 0.6722 -0.5318
vn 0.2609 0.3410 -0.9031
vn -0.0085 -0.0048 -1.0000
vn -0.2677 -0.3499 -0.8977
vn -0.5153 -0.6757 -0.5272
vn -0.4973 -0.8676 0.0006
vn -0.4220 -0.7375 0.5273
vn -0.2199 -0.3847 0.8965
vn -0.0066 -0.0073 1.0000
vn 0.2169 0.3742 0.9016
vn 0.4240 0.7339 0.5306
vn 0.4995 0.8663 -0.0005
vn 0.4230 0.7339 -0.5315
vn 0.2151 0.3742 -0.9021
vn -0.0082 -0.0069 -0.9999
vn -0.2216 -0.3848 -0.8960
vn -0.4230 -0.7376 -0.5263
vn -0.3801 -0.9250 0.0004
vn -0.3227 -0.7868 0.5262
vn -0.1694 -0.4135 0.8946
vn -0.0056 -0.0096 0.9999
vn 0.1668 0.4010 0.9008
vn 0.3246 0.7830 0.5305
vn 0.3822 0.9241 -0.0004
vn 0.3236 0.7830 -0.5312
vn 0.1651 0.4010 -0.9011
vn -0.0074 -0.0092 -0.9999
vn -0.1711 -0.4136 -0.8942
vn -0.3237 -0.7868 -0.5255
vn -0.2567 -0.9665 0.0003
vn -0.2179 -0.8226 0.5252
vn -0.1151 -0.4353 0.8929
vn -0.0039 -0.0116 0.9999
vn 0.1134 0.4207 0.9001
vn 0.2196 0.8187 0.5305
vn 0.2583 0.9661 -0.0003
vn 0.2186 0.8187 -0.5310
vn 0.1117 0.4207 -0.9003
vn -0.0058 -0.0114 -0.9999
vn -0.1167 -0.4353 -0.8927
vn -0.2189 -0.8227 -0.5247
vn -0.1292 -0.9916 0.0002
vn -0.1095 -0.8444 0.5244
vn -0.0578 -0.4489 0.8917
vn -0.0017 -0.0131 0.9999
vn 0.0577 0.4328 0.8996
vn 0.1109 0.8404 0.5306
vn 0.1301 0.9915 -0.0001
vn 0.1099 0.8404 -0.5308
vn 0.0560 0.4328 -0.8998
vn -0.0036 -0.0129 -0.9999
vn -0.0595 -0.4489 -0.8916
vn -0.1105 -0.8444 -0.5241
vn 0.0007 -0.8517 0.5240
vn 0.0009 -0.4535 0.8913
vn 0.0009 -0.0135 0.9999
vn 0.0008 0.4369 0.8995
vn 0.0003 0.8476 0.5306
vn -0.0007 0.8476 -0.5306
vn -0.0010 0.4369 -0.8995
vn -0.0009 -0.0135 -0.9999
vn -0.0007 -0.4535 -0.8913
vn -0.0003 -0.8517 -0.5240
vn 0.1298 -0.9915 -0.0002
vn 0.1110 -0.8444 0.5241
vn 0.0597 -0.4488 0.8916
vn 0.0036 -0.0129 0.9999
vn -0.0562 0.4328 0.8998
vn -0.1103 0.8403 0.5308
vn -0.1306 0.9914 0.0001
vn -0.1113 0.8403 -0.5306
vn -0.0579 0.4328 -0.8996
vn 0.0017 -0.0131 -0.9999
vn 0.0581 -0.4488 -0.8917
vn 0.1100 -0.8444 -0.5244
vn 0.2572 -0.9663 -0.0003
vn 0.2194 -0.8226 0.5247
vn 0.1170 -0.4353 0.8927
vn 0.0058 -0.0114 0.9999
vn -0.1119 0.4207 0.9003
vn -0.2190 0.8186 0.5310
vn -0.2588 0.9659 0.0003
vn -0.2200 0.8186 -0.5305
vn -0.1137 0.4207 -0.9001
vn 0.0040 -0.0116 -0.9999
vn 0.1153 -0.4352 -0.8929
vn 0.2184 -0.8225 -0.5252
vn 0.3806 -0.9247 -0.0004
vn 0.3241 -0.7867 0.5255
vn 0.1713 -0.4135 0.8942
vn 0.0074 -0.0092 0.9999
vn -0.1653 0.4009 0.9011
vn -0.3240 0.7829 0.5312
vn -0.3827 0.9239 0.0004
vn -0.3250 0.7829 -0.5305
vn -0.1671 0.4009 -0.9008
vn 0.0056 -0.0096 -0.9999
vn 0.1696 -0.4135 -0.8946
vn 0.3231 -0.7866 -0.5262
vn 0.4977 -0.8673 -0.0006
vn 0.4234 -0.7373 0.5263
vn 0.2219 -0.3847 0.8960
vn 0.0083 -0.0069 0.9999
vn -0.2153 0.3741 0.9021
vn -0.4234 0.7337 0.5315
vn -0.5000 0.8660 0.0005
vn -0.4244 0.7337 -0.5306
vn -0.2171 0.3741 -0.9016
vn 0.0066 -0.0073 -1.0000
vn 0.2201 -0.3846 -0.8965
vn 0.4224 -0.7373 -0.5273
vn 0.6066 -0.7950 -0.0007
vn 0.5156 -0.6755 0.5272
vn 0.2679 -0.3497 0.8977
vn 0.0086 -0.0048 1.0000
vn -0.2611 0.3409 0.9031
vn -0.5155 0.6719 0.5318
vn -0.6088 0.7933 0.0006
vn -0.5165 0.6719 -0.5308
vn -0.2629 0.3409 -0.9026
vn 0.0070 -0.0052 -1.0000
vn 0.2661 -0.3496 -0.8983
vn 0.5146 -0.6754 -0.5283
vn 0.7052 -0.7090 -0.0008
vn 0.5991 -0.6020 0.5278
vn 0.3088 -0.3096 0.8993
vn 0.0084 -0.0030 1.0000
vn -0.3020 0.3022 0.9041
vn -0.5987 0.5986 0.5322
vn -0.7072 0.7070 0.0007
vn -0.5998 0.5986 -0.5310
vn -0.3037 0.3023 -0.9035
vn 0.0070 -0.0034 -1.0000
vn 0.3070 -0.3095 -0.9000
vn 0.5980 -0.6020 -0.5291
vn 0.7919 -0.6106 -0.0008
vn 0.6724 -0.5184 0.5284
vn 0.3443 -0.2649 0.9007
vn 0.0080 -0.0016 1.0000
vn -0.3373 0.2589 0.9051
vn -0.6716 0.5151 0.5325
vn -0.7935 0.6086 0.0008
vn -0.6727 0.5152 -0.5311
vn -0.3391 0.2589 -0.9044
vn 0.0067 -0.0020 -1.0000
vn 0.3425 -0.2648 -0.9014
vn 0.6713 -0.5183 -0.5298
vn 0.8650 -0.5017 -0.0009
vn 0.7342 -0.4258 0.5288
vn 0.3740 -0.2166 0.9018
vn 0.0075 -0.0007 1.0000
vn -0.3667 0.2117 0.9059
vn -0.7330 0.4229 0.5328
vn -0.8662 0.4998 0.0009
vn -0.7340 0.4229 -0.5313
vn -0.3686 0.2117 -0.9052
vn 0.0063 -0.0011 -1.0000
vn 0.3722 -0.2165 -0.9026
vn 0.7332 -0.4257 -0.5303
vn 0.9233 -0.3840 -0.0010
vn 0.7835 -0.3259 0.5291
vn 0.3975 -0.1652 0.9026
vn 0.0070 -0.0001 1.0000
vn -0.3900 0.1614 0.9066
vn -0.7818 0.3235 0.5330
vn -0.9240 0.3824 0.0009
vn -0.7828 0.3236 -0.5315
vn -0.3918 0.1614 -0.9058
vn 0.0058 -0.0004 -1.0000
vn 0.3956 -0.1651 -0.9034
vn 0.7824 -0.3258 -0.5307
vn 0.9657 -0.2597 -0.0010
vn 0.8194 -0.2203 0.5292
vn 0.4145 -0.1114 0.9032
vn 0.0066 0.0001 1.0000
vn -0.4067 0.1088 0.9071
vn -0.8172 0.2187 0.5332
vn -0.9660 0.2585 0.0010
vn -0.8183 0.2187 -0.5316
vn -0.4085 0.1088 -0.9062
vn 0.0054 -0.0001 -1.0000
vn 0.4127 -0.1114 -0.9041
vn 0.8183 -0.2203 -0.5310
vn 0.9914 -0.1309 -0.0010
vn 0.8411 -0.1110 0.5293
vn 0.4249 -0.0560 0.9035
vn 0.0063 0.0001 1.0000
vn -0.4168 0.0547 0.9074
vn -0.8387 0.1102 0.5333
vn -0.9915 0.1302 0.0010
vn -0.8398 0.1102 -0.5316
vn -0.4186 0.0547 -0.9065
vn 0.0052 -0.0000 -1.0000
vn 0.4230 -0.0560 -0.9044
vn 0.8400 -0.1110 -0.5311
vn 0.8484 0.0002 0.5294
vn 0.4283 0.0001 0.9036
vn 0.0062 -0.0000 1.0000
vn -0.4202 -0.0001 0.9074
vn -0.8459 -0.0002 0.5334
vn -0.8470 -0.0002 -0.5317
vn -0.4220 -0.0001 -0.9066
vn 0.0051 -0.0000 -1.0000
vn 0.4264 0.0001 -0.9045
vn 0.8473 0.0002 -0.5311
vn 0.9913 0.1314 -0.0010
vn 0.8411 0.1115 0.5293
vn 0.4248 0.0563 0.9035
vn 0.0063 -0.0001 1.0000
vn -0.4168 -0.0549 0.9074
vn -0.8386 -0.1106 0.5333
vn -0.9914 -0.1308 0.0010
vn -0.8397 -0.1106 -0.5316
vn -0.4186 -0.0550 -0.9065
vn 0.4229 0.0562 -0.9044
vn 0.8399 0.1115 -0.5311
vn 0.9655 0.2602 -0.0010
vn 0.8192 0.2208 0.5292
vn 0.4145 0.1116 0.9032
vn 0.0066 -0.0001 1.0000
vn -0.4066 -0.1090 0.9071
vn -0.8171 -0.2191 0.5332
vn -0.9659 -0.2590 0.0010
vn -0.8182 -0.2191 -0.5316
vn -0.4085 -0.1090 -0.9062
vn 0.0054 0.0001 -1.0000
vn 0.4126 0.1116 -0.9041
vn 0.8181 0.2208 -0.5310
vn 0.9231 0.3845 -0.0010
vn 0.7834 0.3263 0.5291
vn 0.3974 0.1654 0.9026
vn 0.0070 0.0001 1.0000
vn -0.3899 -0.1616 0.9066
vn -0.7816 -0.3240 0.5330
vn -0.9238 -0.3829 0.0009
vn -0.7827 -0.3240 -0.5315
vn -0.3917 -0.1616 -0.9058
vn 0.0058 0.0004 -1.0000
vn 0.3956 0.1653 -0.9034
vn 0.7823 0.3262 -0.5307
vn 0.8648 0.5022 -0.0009
vn 0.7340 0.4262 0.5288
vn 0.3739 0.2168 0.9018
vn 0.0075 0.0007 1.0000
vn -0.3666 -0.2119 0.9059
vn -0.7328 -0.4233 0.5328
vn -0.8659 -0.5002 0.0009
vn -0.7338 -0.4233 -0.5313
vn -0.3684 -0.2119 -0.9052
vn 0.0063 0.0011 -1.0000
vn 0.3720 0.2167 -0.9026
vn 0.7329 0.4261 -0.5303
vn 0.7916 0.6111 -0.0008
vn 0.6721 0.5187 0.5284
vn 0.3442 0.2651 0.9007
vn 0.0080 0.0016 1.0000
vn -0.3372 -0.2591 0.9051
vn -0.6714 -0.5155 0.5325
vn -0.7932 -0.6090 0.0008
vn -0.6724 -0.5155 -0.5311
vn -0.3390 -0.2591 -0.9044
vn 0.0067 0.0020 -1.0000
vn 0.3424 0.2650 -0.9014
vn 0.6710 0.5186 -0.5298
vn 0.7049 0.7093 -0.0008
vn 0.5988 0.6024 0.5278
vn 0.3086 0.3097 0.8993
vn 0.0084 0.0030 1.0000
vn -0.3018 -0.3024 0.9041
vn -0.5984 -0.5989 0.5322
vn -0.7068 -0.7074 0.0007
vn -0.5994 -0.5990 -0.5310
vn -0.3036 -0.3024 -0.9035
vn 0.0070 0.0034 -1.0000
vn 0.3069 0.3096 -0.9000
vn 0.5977 0.6023 -0.5291
vn 0.6062 0.7953 -0.0007
vn 0.5153 0.6757 0.5272
vn 0.2677 0.3499 0.8977
vn 0.0085 0.0048 1.0000
vn -0.2609 -0.3410 0.9031
vn -0.5152 -0.6722 0.5318
vn -0.6084 -0.7936 0.0006
vn -0.5162 -0.6722 -0.5308
vn -0.2627 -0.3411 -0.9026
vn 0.0070 0.0052 -1.0000
vn 0.2659 0.3498 -0.8983
vn 0.5142 0.6756 -0.5283
vn 0.4973 0.8676 -0.0006
vn 0.4230 0.7376 0.5263
vn 0.2216 0.3848 0.8960
vn 0.0082 0.0069 0.9999
vn -0.2151 -0.3742 0.9021
vn -0.4230 -0.7339 0.5315
vn -0.4995 -0.8663 0.0005
vn -0.4240 -0.7339 -0.5306
vn -0.2169 -0.3742 -0.9016
vn 0.0066 0.0073 -1.0000
vn 0.2199 0.3847 -0.8965
vn 0.4220 0.7375 -0.5273
vn 0.3801 0.9250 -0.0004
vn 0.3237 0.7868 0.5255
vn 0.1711 0.4136 0.8942
vn 0.0074 0.0092 0.9999
vn -0.1651 -0.4010 0.9011
vn -0.3236 -0.7830 0.5312
vn -0.3822 -0.9241 0.0004
vn -0.3246 -0.7830 -0.5305
vn -0.1668 -0.4010 -0.9008
vn 0.0056 0.0096 -0.9999
vn 0.1694 0.4135 -0.8946
vn 0.3227 0.7868 -0.5262
vn 0.2567 0.9665 -0.0003
vn 0.2189 0.8227 0.5247
vn 0.1167 0.4353 0.8927
vn 0.0058 0.0114 0.9999
vn -0.1117 -0.4207 0.9003
vn -0.2186 -0.8187 0.5310
vn -0.2583 -0.9661 0.0003
vn -0.2196 -0.8187 -0.5305
vn -0.1134 -0.4207 -0.9001
vn 0.0039 0.0116 -0.9999
vn 0.1151 0.4353 -0.8929
vn 0.2179 0.8226 -0.5252
vn 0.1292 0.9916 -0.0002
vn 0.1105 0.8444 0.5241
vn 0.0595 0.4489 0.8916
vn 0.0036 0.0129 0.9999
vn -0.0560 -0.4328 0.8998
vn -0.1099 -0.8404 0.5308
vn -0.1301 -0.9915 0.0001
vn -0.1109 -0.8404 -0.5306
vn -0.0577 -0.4328 -0.8996
vn 0.0017 0.0131 -0.9999
vn 0.0578 0.4489 -0.8917
vn 0.1095 0.8444 -0.5244
vt 0.375000 0.000000
vt 0.625000 0.000000
vt 0.625000 0.250000
vt 0.375000 0.250000
vt 0.625000 0.500000
vt 0.375000 0.500000
vt 0.625000 0.750000
vt 0.375000 0.750000
vt 0.625000 1.000000
vt 0.375000 1.000000
vt 0.125000 0.500000
vt 0.125000 0.750000
vt 0.875000 0.500000
vt 0.875000 0.750000
vt 1.000000 0.500000
vt 1.000000 1.000000
vt 0.968750 1.000000
vt 0.968750 0.500000
vt 0.937500 1.000000
vt 0.937500 0.500000
vt 0.906250 1.000000
vt 0.906250 0.500000
vt 0.875000 1.000000
vt 0.843750 1.000000
vt 0.843750 0.500000
vt 0.812500 1.000000
vt 0.812500 0.500000
vt 0.781250 1.000000
vt 0.781250 0.500000
vt 0.750000 1.000000
vt 0.750000 0.500000
vt 0.718750 1.000000
vt 0.718750 0.500000
vt 0.687500 1.000000
vt 0.687500 0.500000
vt 0.656250 1.000000
vt 0.656250 0.500000
vt 0.593750 1.000000
vt 0.593750 0.500000
vt 0.562500 1.000000
vt 0.562500 0.500000
vt 0.531250 1.000000
vt 0.531250 0.500000
vt 0.500000 1.000000
vt 0.500000 0.500000
vt 0.468750 1.000000
vt 0.468750 0.500000
vt 0.437500 1.000000
vt 0.437500 0.500000
vt 0.406250 1.000000
vt 0.406250 0.500000
vt 0.343750 1.000000
vt 0.343750 0.500000
vt 0.312500 1.000000
vt 0.312500 0.500000
vt 0.281250 1.000000
vt 0.281250 0.500000
vt 0.250000 1.000000
vt 0.250000 0.500000
vt 0.218750 1.000000
vt 0.218750 0.500000
vt 0.187500 1.000000
vt 0.187500 0.500000
vt 0.156250 1.000000
vt 0.156250 0.500000
vt 0.125000 1.000000
vt 0.093750 1.000000
vt 0.093750 0.500000
vt 0.062500 1.000000
vt 0.062500 0.500000
vt 0.296822 0.485388
vt 0.250000 0.490000
vt 0.203178 0.485388
vt 0.158156 0.471731
vt 0.116663 0.449553
vt 0.080294 0.419706
vt 0.050447 0.383337
vt 0.028269 0.341844
vt 0.014612 0.296822
vt 0.010000 0.250000
vt 0.014612 0.203178
vt 0.028269 0.158156
vt 0.050447 0.116663
vt 0.080294 0.080294
vt 0.116663 0.050447
vt 0.158156 0.028269
vt 0.203178 0.014612
vt 0.250000 0.010000
vt 0.296822 0.014612
vt 0.341844 0.028269
vt 0.383337 0.050447
vt 0.419706 0.080294
vt 0.449553 0.116663
vt 0.471731 0.158156
vt 0.485388 0.203178
vt 0.490000 0.250000
vt 0.485388 0.296822
vt 0.471731 0.341844
vt 0.449553 0.383337
vt 0.419706 0.419706
vt 0.383337 0.449553
vt 0.341844 0.471731
vt 0.031250 1.000000
vt 0.031250 0.500000
vt 0.000000 1.000000
vt 0.000000 0.500000
vt 0.750000 0.490000
vt 0.796822 0.485388
vt 0.841844 0.471731
vt 0.883337 0.449553
vt 0.919706 0.419706
vt 0.949553 0.383337
vt 0.971731 0.341844
vt 0.985388 0.296822
vt 0.990000 0.250000
vt 0.985388 0.203178
vt 0.971731 0.158156
vt 0.949553 0.116663
vt 0.919706 0.080294
vt 0.883337 0.050447
vt 0.841844 0.028269
vt 0.796822 0.014612
vt 0.750000 0.010000
vt 0.703178 0.014612
vt 0.658156 0.028269
vt 0.616663 0.050447
vt 0.580294 0.080294
vt 0.550447 0.116663
vt 0.528269 0.158156
vt 0.514612 0.203178
vt 0.510000 0.250000
vt 0.514612 0.296822
vt 0.528269 0.341844
vt 0.550447 0.383337
vt 0.580294 0.419706
vt 0.616663 0.449553
vt 0.658156 0.471731
vt 0.703178 0.485388
vt 0.520833 0.500000
vt 0.520833 0.583333
vt 0.500000 0.583333
vt 0.520833 0.666667
vt 0.500000 0.666667
vt 0.520833 0.750000
vt 0.500000 0.750000
vt 0.520833 0.833333
vt 0.500000 0.833333
vt 0.520833 0.916667
vt 0.500000 0.916667
vt 0.520833 1.000000
vt 0.500000 0.000000
vt 0.520833 0.000000
vt 0.520833 0.083333
vt 0.500000 0.083333
vt 0.520833 0.166667
vt 0.500000 0.166667
vt 0.520833 0.250000
vt 0.500000 0.250000
vt 0.520833 0.333333
vt 0.500000 0.333333
vt 0.520833 0.416667
vt 0.500000 0.416667
vt 0.541667 0.500000
vt 0.541667 0.583333
vt 0.541667 0.666667
vt 0.541667 0.750000
vt 0.541667 0.833333
vt 0.541667 0.916667
vt 0.541667 1.000000
vt 0.541667 0.000000
vt 0.541667 0.083333
vt 0.541667 0.166667
vt 0.541667 0.250000
vt 0.541667 0.333333
vt 0.541667 0.416667
vt 0.562500 0.583333
vt 0.562500 0.666667
vt 0.562500 0.750000
vt 0.562500 0.833333
vt 0.562500 0.916667
vt 0.562500 0.000000
vt 0.562500 0.083333
vt 0.562500 0.166667
vt 0.562500 0.250000
vt 0.562500 0.333333
vt 0.562500 0.416667
vt 0.583333 0.500000
vt 0.583333 0.583333
vt 0.583333 0.666667
vt 0.583333 0.750000
vt 0.583333 0.833333
vt 0.583333 0.916667
vt 0.583333 1.000000
vt 0.583333 0.000000
vt 0.583333 0.083333
vt 0.583333 0.166667
vt 0.583333 0.250000
vt 0.583333 0.333333
vt 0.583333 0.416667
vt 0.604167 0.500000
vt 0.604167 0.583333
vt 0.604167 0.666667
vt 0.604167 0.750000
vt 0.604167 0.833333
vt 0.604167 0.916667
vt 0.604167 1.000000
vt 0.604167 0.000000
vt 0.604167 0.083333
vt 0.604167 0.166667
vt 0.604167 0.250000
vt 0.604167 0.333333
vt 0.604167 0.416667
vt 0.625000 0.583333
vt 0.625000 0.666667
vt 0.625000 0.833333
vt 0.625000 0.916667
vt 0.625000 0.000000
vt 0.625000 0.083333
vt 0.625000 0.166667
vt 0.625000 0.333333
vt 0.625000 0.416667
vt 0.645833 0.500000
vt 0.645833 0.583333
vt 0.645833 0.666667
vt 0.645833 0.750000
vt 0.645833 0.833333
vt 0.645833 0.916667
vt 0.645833 1.000000
vt 0.645833 0.000000
vt 0.645833 0.083333
vt 0.645833 0.166667
vt 0.645833 0.250000
vt 0.645833 0.333333
vt 0.645833 0.416667
vt 0.666667 0.500000
vt 0.666667 0.583333
vt 0.666667 0.666667
vt 0.666667 0.750000
vt 0.666667 0.833333
vt 0.666667 0.916667
vt 0.666667 1.000000
vt 0.666667 0.000000
vt 0.666667 0.083333
vt 0.666667 0.166667
vt 0.666667 0.250000
vt 0.666667 0.333333
vt 0.666667 0.416667
vt 0.687500 0.583333
vt 0.687500 0.666667
vt 0.687500 0.750000
vt 0.687500 0.833333
vt 0.687500 0.916667
vt 0.687500 0.000000
vt 0.687500 0.083333
vt 0.687500 0.166667
vt 0.687500 0.250000
vt 0.687500 0.333333
vt 0.687500 0.416667
vt 0.708333 0.500000
vt 0.708333 0.583333
vt 0.708333 0.666667
vt 0.708333 0.750000
vt 0.708333 0.833333
vt 0.708333 0.916667
vt 0.708333 1.000000
vt 0.708333 0.000000
vt 0.708333 0.083333
vt 0.708333 0.166667
vt 0.708333 0.250000
vt 0.708333 0.333333
vt 0.708333 0.416667
vt 0.729167 0.500000
vt 0.729167 0.583333
vt 0.729167 0.666667
vt 0.729167 0.750000
vt 0.729167 0.833333
vt 0.729167 0.916667
vt 0.729167 1.000000
vt 0.729167 0.000000
vt 0.729167 0.083333
vt 0.729167 0.166667
vt 0.729167 0.250000
vt 0.729167 0.333333
vt 0.729167 0.416667
vt 0.750000 0.583333
vt 0.750000 0.666667
vt 0.750000 0.750000
vt 0.750000 0.833333
vt 0.750000 0.916667
vt 0.750000 0.000000
vt 0.750000 0.083333
vt 0.750000 0.166667
vt 0.750000 0.250000
vt 0.750000 0.333333
vt 0.750000 0.416667
vt 0.770833 0.500000
vt 0.770833 0.583333
vt 0.770833 0.666667
vt 0.770833 0.750000
vt 0.770833 0.833333
vt 0.770833 0.916667
vt 0.770833 1.000000
vt 0.770833 0.000000
vt 0.770833 0.083333
vt 0.770833 0.166667
vt 0.770833 0.250000
vt 0.770833 0.333333
vt 0.770833 0.416667
vt 0.791667 0.500000
vt 0.791667 0.583333
vt 0.791667 0.666667
vt 0.791667 0.750000
vt 0.791667 0.833333
vt 0.791667 0.916667
vt 0.791667 1.000000
vt 0.791667 0.000000
vt 0.791667 0.083333
vt 0.791667 0.166667
vt 0.791667 0.250000
vt 0.791667 0.333333
vt 0.791667 0.416667
vt 0.812500 0.583333
vt 0.812500 0.666667
vt 0.812500 0.750000
vt 0.812500 0.833333
vt 0.812500 0.916667
vt 0.812500 0.000000
vt 0.812500 0.083333
vt 0.812500 0.166667
vt 0.812500 0.250000
vt 0.812500 0.333333
vt 0.812500 0.416667
vt 0.833333 0.500000
vt 0.833333 0.583333
vt 0.833333 0.666667
vt 0.833333 0.750000
vt 0.833333 0.833333
vt 0.833333 0.916667
vt 0.833333 1.000000
vt 0.833333 0.000000
vt 0.833333 0.083333
vt 0.833333 0.166667
vt 0.833333 0.250000
vt 0.833333 0.333333
vt 0.833333 0.416667
vt 0.854167 0.500000
vt 0.854167 0.583333
vt 0.854167 0.666667
vt 0.854167 0.750000
vt 0.854167 0.833333
vt 0.854167 0.916667
vt 0.854167 1.000000
vt 0.854167 0.000000
vt 0.854167 0.083333
vt 0.854167 0.166667
vt 0.854167 0.250000
vt 0.854167 0.333333
vt 0.854167 0.416667
vt 0.875000 0.583333
vt 0.875000 0.666667
vt 0.875000 0.833333
vt 0.875000 0.916667
vt 0.875000 0.000000
vt 0.875000 0.083333
vt 0.875000 0.166667
vt 0.875000 0.250000
vt 0.875000 0.333333
vt 0.875000 0.416667
vt 0.895833 0.500000
vt 0.895833 0.583333
vt 0.895833 0.666667
vt 0.895833 0.750000
vt 0.895833 0.833333
vt 0.895833 0.916667
vt 0.895833 1.000000
vt 0.895833 0.000000
vt 0.895833 0.083333
vt 0.895833 0.166667
vt 0.895833 0.250000
vt 0.895833 0.333333
vt 0.895833 0.416667
vt 0.916667 0.500000
vt 0.916667 0.583333
vt 0.916667 0.666667
vt 0.916667 0.750000
vt 0.916667 0.833333
vt 0.916667 0.916667
vt 0.916667 1.000000
vt 0.916667 0.000000
vt 0.916667 0.083333
vt 0.916667 0.166667
vt 0.916667 0.250000
vt 0.916667 0.333333
vt 0.916667 0.416667
vt 0.937500 0.583333
vt 0.937500 0.666667
vt 0.937500 0.750000
vt 0.937500 0.833333
vt 0.937500 0.916667
vt 0.937500 0.000000
vt 0.937500 0.083333
vt 0.937500 0.166667
vt 0.937500 0.250000
vt 0.937500 0.333333
vt 0.937500 0.416667
vt 0.958333 0.500000
vt 0.958333 0.583333
vt 0.958333 0.666667
vt 0.958333 0.750000
vt 0.958333 0.833333
vt 0.958333 0.916667
vt 0.958333 1.000000
vt 0.958333 0.000000
vt 0.958333 0.083333
vt 0.958333 0.166667
vt 0.958333 0.250000
vt 0.958333 0.333333
vt 0.958333 0.416667
vt 0.979167 0.500000
vt 0.979167 0.583333
vt 0.979167 0.666667
vt 0.979167 0.750000
vt 0.979167 0.833333
vt 0.979167 0.916667
vt 0.979167 1.000000
vt 0.979167 0.000000
vt 0.979167 0.083333
vt 0.979167 0.166667
vt 0.979167 0.250000
vt 0.979167 0.333333
vt 0.979167 0.416667
vt 1.000000 0.583333
vt 1.000000 0.666667
vt 1.000000 0.750000
vt 1.000000 0.833333
vt 1.000000 0.916667
vt 1.000000 0.000000
vt 1.000000 0.083333
vt 1.000000 0.166667
vt 1.000000 0.250000
vt 1.000000 0.333333
vt 1.000000 0.416667
vt 0.000000 0.500000
vt 0.020833 0.500000
vt 0.020833 0.583333
vt 0.000000 0.583333
vt 0.020833 0.666667
vt 0.000000 0.666667
vt 0.020833 0.750000
vt 0.000000 0.750000
vt 0.020833 0.833333
vt 0.000000 0.833333
vt 0.020833 0.916667
vt 0.000000 0.916667
vt 0.020833 1.000000
vt 0.000000 1.000000
vt 0.000000 0.000000
vt 0.020833 0.000000
vt 0.020833 0.083333
vt 0.000000 0.083333
vt 0.020833 0.166667
vt 0.000000 0.166667
vt 0.020833 0.250000
vt 0.000000 0.250000
vt 0.020833 0.333333
vt 0.000000 0.333333
vt 0.020833 0.416667
vt 0.000000 0.416667
vt 0.041667 0.500000
vt 0.041667 0.583333
vt 0.041667 0.666667
vt 0.041667 0.750000
vt 0.041667 0.833333
vt 0.041667 0.916667
vt 0.041667 1.000000
vt 0.041667 0.000000
vt 0.041667 0.083333
vt 0.041667 0.166667
vt 0.041667 0.250000
vt 0.041667 0.333333
vt 0.041667 0.416667
vt 0.062500 0.583333
vt 0.062500 0.666667
vt 0.062500 0.750000
vt 0.062500 0.833333
vt 0.062500 0.916667
vt 0.062500 0.000000
vt 0.062500 0.083333
vt 0.062500 0.166667
vt 0.062500 0.250000
vt 0.062500 0.333333
vt 0.062500 0.416667
vt 0.083333 0.500000
vt 0.083333 0.583333
vt 0.083333 0.666667
vt 0.083333 0.750000
vt 0.083333 0.833333
vt 0.083333 0.916667
vt 0.083333 1.000000
vt 0.083333 0.000000
vt 0.083333 0.083333
vt 0.083333 0.166667
vt 0.083333 0.250000
vt 0.083333 0.333333
vt 0.083333 0.416667
vt 0.104167 0.500000
vt 0.104167 0.583333
vt 0.104167 0.666667
vt 0.104167 0.750000
vt 0.104167 0.833333
vt 0.104167 0.916667
vt 0.104167 1.000000
vt 0.104167 0.000000
vt 0.104167 0.083333
vt 0.104167 0.166667
vt 0.104167 0.250000
vt 0.104167 0.333333
vt 0.104167 0.416667
vt 0.125000 0.583333
vt 0.125000 0.666667
vt 0.125000 0.833333
vt 0.125000 0.916667
vt 0.125000 0.000000
vt 0.125000 0.083333
vt 0.125000 0.166667
vt 0.125000 0.250000
vt 0.125000 0.333333
vt 0.125000 0.416667
vt 0.145833 0.500000
vt 0.145833 0.583333
vt 0.145833 0.666667
vt 0.145833 0.750000
vt 0.145833 0.833333
vt 0.145833 0.916667
vt 0.145833 1.000000
vt 0.145833 0.000000
vt 0.145833 0.083333
vt 0.145833 0.166667
vt 0.145833 0.250000
vt 0.145833 0.333333
vt 0.145833 0.416667
vt 0.166667 0.500000
vt 0.166667 0.583333
vt 0.166667 0.666667
vt 0.166667 0.750000
vt 0.166667 0.833333
vt 0.166667 0.916667
vt 0.166667 1.000000
vt 0.166667 0.000000
vt 0.166667 0.083333
vt 0.166667 0.166667
vt 0.166667 0.250000
vt 0.166667 0.333333
vt 0.166667 0.416667
vt 0.187500 0.583333
vt 0.187500 0.666667
vt 0.187500 0.750000
vt 0.187500 0.833333
vt 0.187500 0.916667
vt 0.187500 0.000000
vt 0.187500 0.083333
vt 0.187500 0.166667
vt 0.187500 0.250000
vt 0.187500 0.333333
vt 0.187500 0.416667
vt 0.208333 0.500000
vt 0.208333 0.583333
vt 0.208333 0.666667
vt 0.208333 0.750000
vt 0.208333 0.833333
vt 0.208333 0.916667
vt 0.208333 1.000000
vt 0.208333 0.000000
vt 0.208333 0.083333
vt 0.208333 0.166667
vt 0.208333 0.250000
vt 0.208333 0.333333
vt 0.208333 0.416667
vt 0.229167 0.500000
vt 0.229167 0.583333
vt 0.229167 0.666667
vt 0.229167 0.750000
vt 0.229167 0.833333
vt 0.229167 0.916667
vt 0.229167 1.000000
vt 0.229167 0.000000
vt 0.229167 0.083333
vt 0.229167 0.166667
vt 0.229167 0.250000
vt 0.229167 0.333333
vt 0.229167 0.416667
vt 0.250000 0.583333
vt 0.250000 0.666667
vt 0.250000 0.750000
vt 0.250000 0.833333
vt 0.250000 0.916667
vt 0.250000 0.000000
vt 0.250000 0.083333
vt 0.250000 0.166667
vt 0.250000 0.250000
vt 0.250000 0.333333
vt 0.250000 0.416667
vt 0.270833 0.500000
vt 0.270833 0.583333
vt 0.270833 0.666667
vt 0.270833 0.750000
vt 0.270833 0.833333
vt 0.270833 0.916667
vt 0.270833 1.000000
vt 0.270833 0.000000
vt 0.270833 0.083333
vt 0.270833 0.166667
vt 0.270833 0.250000
vt 0.270833 0.333333
vt 0.270833 0.416667
vt 0.291667 0.500000
vt 0.291667 0.583333
vt 0.291667 0.666667
vt 0.291667 0.750000
vt 0.291667 0.833333
vt 0.291667 0.916667
vt 0.291667 1.000000
vt 0.291667 0.000000
vt 0.291667 0.083333
vt 0.291667 0.166667
vt 0.291667 0.250000
vt 0.291667 0.333333
vt 0.291667 0.416667
vt 0.312500 0.583333
vt 0.312500 0.666667
vt 0.312500 0.750000
vt 0.312500 0.833333
vt 0.312500 0.916667
vt 0.312500 0.000000
vt 0.312500 0.083333
vt 0.312500 0.166667
vt 0.312500 0.250000
vt 0.312500 0.333333
vt 0.312500 0.416667
vt 0.333333 0.500000
vt 0.333333 0.583333
vt 0.333333 0.666667
vt 0.333333 0.750000
vt 0.333333 0.833333
vt 0.333333 0.916667
vt 0.333333 1.000000
vt 0.333333 0.000000
vt 0.333333 0.083333
vt 0.333333 0.166667
vt 0.333333 0.250000
vt 0.333333 0.333333
vt 0.333333 0.416667
vt 0.354167 0.500000
vt 0.354167 0.583333
vt 0.354167 0.666667
vt 0.354167 0.750000
vt 0.354167 0.833333
vt 0.354167 0.916667
vt 0.354167 1.000000
vt 0.354167 0.000000
vt 0.354167 0.083333
vt 0.354167 0.166667
vt 0.354167 0.250000
vt 0.354167 0.333333
vt 0.354167 0.416667
vt 0.375000 0.583333
vt 0.375000 0.666667
vt 0.375000 0.833333
vt 0.375000 0.916667
vt 0.375000 0.000000
vt 0.375000 0.083333
vt 0.375000 0.166667
vt 0.375000 0.333333
vt 0.375000 0.416667
vt 0.395833 0.500000
vt 0.395833 0.583333
vt 0.395833 0.666667
vt 0.395833 0.750000
vt 0.395833 0.833333
vt 0.395833 0.916667
vt 0.395833 1.000000
vt 0.395833 0.000000
vt 0.395833 0.083333
vt 0.395833 0.166667
vt 0.395833 0.250000
vt 0.395833 0.333333
vt 0.395833 0.416667
vt 0.416667 0.500000
vt 0.416667 0.583333
vt 0.416667 0.666667
vt 0.416667 0.750000
vt 0.416667 0.833333
vt 0.416667 0.916667
vt 0.416667 1.000000
vt 0.416667 0.000000
vt 0.416667 0.083333
vt 0.416667 0.166667
vt 0.416667 0.250000
vt 0.416667 0.333333
vt 0.416667 0.416667
vt 0.437500 0.583333
vt 0.437500 0.666667
vt 0.437500 0.750000
vt 0.437500 0.833333
vt 0.437500 0.916667
vt 0.437500 0.000000
vt 0.437500 0.083333
vt 0.437500 0.166667
vt 0.437500 0.250000
vt 0.437500 0.333333
vt 0.437500 0.416667
vt 0.458333 0.500000
vt 0.458333 0.583333
vt 0.458333 0.666667
vt 0.458333 0.750000
vt 0.458333 0.833333
vt 0.458333 0.916667
vt 0.458333 1.000000
vt 0.458333 0.000000
vt 0.458333 0.083333
vt 0.458333 0.166667
vt 0.458333 0.250000
vt 0.458333 0.333333
vt 0.458333 0.416667
vt 0.479167 0.500000
vt 0.479167 0.583333
vt 0.479167 0.666667
vt 0.479167 0.750000
vt 0.479167 0.833333
vt 0.479167 0.916667
vt 0.479167 1.000000
vt 0.479167 0.000000
vt 0.479167 0.083333
vt 0.479167 0.166667
vt 0.479167 0.250000
vt 0.479167 0.333333
vt 0.479167 0.416667
s 0
f 1/1/1 2/2/1 4/3/1 3/4/1
f 3/4/2 4/3/2 8/5/2 7/6/2
f 7/6/3 8/5/3 6/7/3 5/8/3
f 5/8/4 6/7/4 2/9/4 1/10/4
f 3/11/5 7/6/5 5/8/5 1/12/5
f 8/5/6 4/13/6 2/14/6 6/7/6
s 1
f 9/15/7 10/16/8 12/17/9 11/18/10
f 11/18/10 12/17/9 14/19/11 13/20/12
f 13/20/12 14/19/11 16/21/13 15/22/14
f 15/22/14 16/21/13 18/23/15 17/13/16
f 17/13/16 18/23/15 20/24/17 19/25/18
f 19/25/18 20/24/17 22/26/19 21/27/20
f 21/27/20 22/26/19 24/28/21 23/29/22
f 23/29/22 24/28/21 26/30/23 25/31/24
f 25/31/24 26/30/23 28/32/25 27/33/26
f 27/33/26 28/32/25 30/34/27 29/35/28
f 29/35/28 30/34/27 32/36/29 31/37/30
f 31/37/30 32/36/29 34/9/31 33/5/32
f 33/5/32 34/9/31 36/38/33 35/39/34
f 35/39/34 36/38/33 38/40/35 37/41/36
f 37/41/36 38/40/35 40/42/37 39/43/38
f 39/43/38 40/42/37 42/44/39 41/45/40
f 41/45/40 42/44/39 44/46/41 43/47/42
f 43/47/42 44/46/41 46/48/43 45/49/44
f 45/49/44 46/48/43 48/50/45 47/51/46
f 47/51/46 48/50/45 50/10/47 49/6/48
f 49/6/48 50/10/47 52/52/49 51/53/50
f 51/53/50 52/52/49 54/54/51 53/55/52
f 53/55/52 54/54/51 56/56/53 55/57/54
f 55/57/54 56/56/53 58/58/55 57/59/56
f 57/59/56 58/58/55 60/60/57 59/61/58
f 59/61/58 60/60/57 62/62/59 61/63/60
f 61/63/60 62/62/59 64/64/61 63/65/62
f 63/65/62 64/64/61 66/66/63 65/11/64
f 65/11/64 66/66/63 68/67/65 67/68/66
f 67/68/66 68/67/65 70/69/67 69/70/68
f 12/71/9 10/72/8 72/73/69 70/74/67 68/75/65 66/76/63 64/77/61 62/78/59 60/79/57 58/80/55 56/81/53 54/82/51 52/83/49 50/84/47 48/85/45 46/86/43 44/87/41 42/88/39 40/89/37 38/90/35 36/91/33 34/92/31 32/93/29 30/94/27 28/95/25 26/96/23 24/97/21 22/98/19 20/99/17 18/100/15 16/101/13 14/102/11
f 69/70/68 70/69/67 72/103/69 71/104/70
f 71/104/70 72/103/69 10/105/8 9/106/7
f 9/107/7 11/108/10 13/109/12 15/110/14 17/111/16 19/112/18 21/113/20 23/114/22 25/115/24 27/116/26 29/117/28 31/118/30 33/119/32 35/120/34 37/121/36 39/122/38 41/123/40 43/124/42 45/125/44 47/126/46 49/127/48 51/128/50 53/129/52 55/130/54 57/131/56 59/132/58 61/133/60 63/134/62 65/135/64 67/136/66 69/137/68 71/138/70
s 0
f 73/1/1 74/2/1 76/3/1 75/4/1
f 75/4/2 76/3/2 80/5/2 79/6/2
f 79/6/3 80/5/3 78/7/3 77/8/3
f 77/8/4 78/7/4 74/9/4 73/10/4
f 75/11/5 79/6/5 77/8/5 73/12/5
f 80/5/6 76/13/6 74/14/6 78/7/6
s 1
f 81/45/3 93/139/71 94/140/72 82/141/73
f 82/141/73 94/140/72 95/142/74 83/143/75
f 83/143/75 95/142/74 96/144/76 84/145/77
f 84/145/77 96/144/76 97/146/78 85/147/79
f 85/147/79 97/146/78 98/148/80 86/149/81
f 86/149/81 98/148/80 99/150/82 87/44/1
f 87/151/1 99/152/82 100/153/83 88/154/84
f 88/154/84 100/153/83 101/155/85 89/156/86
f 89/156/86 101/155/85 102/157/87 90/158/88
f 90/158/88 102/157/87 103/159/89 91/160/90
f 91/160/90 103/159/89 104/161/91 92/162/92
f 92/162/92 104/161/91 93/139/71 81/45/3
f 93/139/71 105/163/93 106/164/94 94/140/72
f 94/140/72 106/164/94 107/165/95 95/142/74
f 95/142/74 107/165/95 108/166/96 96/144/76
f 96/144/76 108/166/96 109/167/97 97/146/78
f 97/146/78 109/167/97 110/168/98 98/148/80
f 98/148/80 110/168/98 111/169/99 99/150/82
f 99/152/82 111/170/99 112/171/100 100/153/83
f 100/153/83 112/171/100 113/172/101 101/155/85
f 101/155/85 113/172/101 114/173/102 102/157/87
f 102/157/87 114/173/102 115/174/103 103/159/89
f 103/159/89 115/174/103 116/175/104 104/161/91
f 104/161/91 116/175/104 105/163/93 93/139/71
f 105/163/93 117/41/105 118/176/106 106/164/94
f 106/164/94 118/176/106 119/177/107 107/165/95
f 107/165/95 119/177/107 120/178/108 108/166/96
f 108/166/96 120/178/108 121/179/109 109/167/97
f 109/167/97 121/179/109 122/180/110 110/168/98
f 110/168/98 122/180/110 123/40/111 111/169/99
f 111/170/99 123/181/111 124/182/112 112/171/100
f 112/171/100 124/182/112 125/183/113 113/172/101
f 113/172/101 125/183/113 126/184/114 114/173/102
f 114/173/102 126/184/114 127/185/115 115/174/103
f 115/174/103 127/185/115 128/186/116 116/175/104
f 116/175/104 128/186/116 117/41/105 105/163/93
f 117/41/105 129/187/117 130/188/118 118/176/106
f 118/176/106 130/188/118 131/189/119 119/177/107
f 119/177/107 131/189/119 132/190/120 120/178/108
f 120/178/108 132/190/120 133/191/121 121/179/109
f 121/179/109 133/191/121 134/192/122 122/180/110
f 122/180/110 134/192/122 135/193/123 123/40/111
f 123/181/111 135/194/123 136/195/124 124/182/112
f 124/182/112 136/195/124 137/196/125 125/183/113
f 125/183/113 137/196/125 138/197/126 126/184/114
f 126/184/114 138/197/126 139/198/127 127/185/115
f 127/185/115 139/198/127 140/199/128 128/186/116
f 128/186/116 140/199/128 129/187/117 117/41/105
f 129/187/117 141/200/129 142/201/130 130/188/118
f 130/188/118 142/201/130 143/202/131 131/189/119
f 131/189/119 143/202/131 144/203/132 132/190/120
f 132/190/120 144/203/132 145/204/133 133/191/121
f 133/191/121 145/204/133 146/205/134 134/192/122
f 134/192/122 146/205/134 147/206/135 135/193/123
f 135/194/123 147/207/135 148/208/136 136/195/124
f 136/195/124 148/208/136 149/209/137 137/196/125
f 137/196/125 149/209/137 150/210/138 138/197/126
f 138/197/126 150/210/138 151/211/139 139/198/127
f 139/198/127 151/211/139 152/212/140 140/199/128
f 140/199/128 152/212/140 141/200/129 129/187/117
f 141/200/129 153/5/141 154/213/142 142/201/130
f 142/201/130 154/213/142 155/214/143 143/202/131
f 143/202/131 155/214/143 156/7/144 144/203/132
f 144/203/132 156/7/144 157/215/145 145/204/133
f 145/204/133 157/215/145 158/216/146 146/205/134
f 146/205/134 158/216/146 159/9/147 147/206/135
f 147/207/135 159/217/147 160/218/148 148/208/136
f 148/208/136 160/218/148 161/219/149 149/209/137
f 149/209/137 161/219/149 162/3/150 150/210/138
f 150/210/138 162/3/150 163/220/151 151/211/139
f 151/211/139 163/220/151 164/221/152 152/212/140
f 152/212/140 164/221/152 153/5/141 141/200/129
f 153/5/141 165/222/153 166/223/154 154/213/142
f 154/213/142 166/223/154 167/224/155 155/214/143
f 155/214/143 167/224/155 168/225/156 156/7/144
f 156/7/144 168/225/156 169/226/157 157/215/145
f 157/215/145 169/226/157 170/227/158 158/216/146
f 158/216/146 170/227/158 171/228/159 159/9/147
f 159/217/147 171/229/159 172/230/160 160/218/148
f 160/218/148 172/230/160 173/231/161 161/219/149
f 161/219/149 173/231/161 174/232/162 162/3/150
f 162/3/150 174/232/162 175/233/163 163/220/151
f 163/220/151 175/233/163 176/234/164 164/221/152
f 164/221/152 176/234/164 165/222/153 153/5/141
f 165/222/153 177/235/165 178/236/166 166/223/154
f 166/223/154 178/236/166 179/237/167 167/224/155
f 167/224/155 179/237/167 180/238/168 168/225/156
f 168/225/156 180/238/168 181/239/169 169/226/157
f 169/226/157 181/239/169 182/240/170 170/227/158
f 170/227/158 182/240/170 183/241/171 171/228/159
f 171/229/159 183/242/171 184/243/172 172/230/160
f 172/230/160 184/243/172 185/244/173 173/231/161
f 173/231/161 185/244/173 186/245/174 174/232/162
f 174/232/162 186/245/174 187/246/175 175/233/163
f 175/233/163 187/246/175 188/247/176 176/234/164
f 176/234/164 188/247/176 177/235/165 165/222/153
f 177/235/165 189/35/177 190/248/178 178/236/166
f 178/236/166 190/248/178 191/249/179 179/237/167
f 179/237/167 191/249/179 192/250/180 180/238/168
f 180/238/168 192/250/180 193/251/181 181/239/169
f 181/239/169 193/251/181 194/252/182 182/240/170
f 182/240/170 194/252/182 195/34/183 183/241/171
f 183/242/171 195/253/183 196/254/184 184/243/172
f 184/243/172 196/254/184 197/255/185 185/244/173
f 185/244/173 197/255/185 198/256/186 186/245/174
f 186/245/174 198/256/186 199/257/187 187/246/175
f 187/246/175 199/257/187 200/258/188 188/247/176
f 188/247/176 200/258/188 189/35/177 177/235/165
f 189/35/177 201/259/189 202/260/190 190/248/178
f 190/248/178 202/260/190 203/261/191 191/249/179
f 191/249/179 203/261/191 204/262/192 192/250/180
f 192/250/180 204/262/192 205/263/193 193/251/181
f 193/251/181 205/263/193 206/264/194 194/252/182
f 194/252/182 206/264/194 207/265/195 195/34/183
f 195/253/183 207/266/195 208/267/196 196/254/184
f 196/254/184 208/267/196 209/268/197 197/255/185
f 197/255/185 209/268/197 210/269/198 198/256/186
f 198/256/186 210/269/198 211/270/199 199/257/187
f 199/257/187 211/270/199 212/271/200 200/258/188
f 200/258/188 212/271/200 201/259/189 189/35/177
f 201/259/189 213/272/201 214/273/202 202/260/190
f 202/260/190 214/273/202 215/274/203 203/261/191
f 203/261/191 215/274/203 216/275/204 204/262/192
f 204/262/192 216/275/204 217/276/205 205/263/193
f 205/263/193 217/276/205 218/277/206 206/264/194
f 206/264/194 218/277/206 219/278/207 207/265/195
f 207/266/195 219/279/207 220/280/208 208/267/196
f 208/267/196 220/280/208 221/281/209 209/268/197
f 209/268/197 221/281/209 222/282/210 210/269/198
f 210/269/198 222/282/210 223/283/211 211/270/199
f 211/270/199 223/283/211 224/284/212 212/271/200
f 212/271/200 224/284/212 213/272/201 201/259/189
f 213/272/201 225/31/213 226/285/214 214/273/202
f 214/273/202 226/285/214 227/286/215 215/274/203
f 215/274/203 227/286/215 228/287/216 216/275/204
f 216/275/204 228/287/216 229/288/217 217/276/205
f 217/276/205 229/288/217 230/289/218 218/277/206
f 218/277/206 230/289/218 231/30/219 219/278/207
f 219/279/207 231/290/219 232/291/220 220/280/208
f 220/280/208 232/291/220 233/292/221 221/281/209
f 221/281/209 233/292/221 234/293/222 222/282/210
f 222/282/210 234/293/222 235/294/223 223/283/211
f 223/283/211 235/294/223 236/295/224 224/284/212
f 224/284/212 236/295/224 225/31/213 213/272/201
f 225/31/213 237/296/225 238/297/226 226/285/214
f 226/285/214 238/297/226 239/298/227 227/286/215
f 227/286/215 239/298/227 240/299/204 228/287/216
f 228/287/216 240/299/204 241/300/228 229/288/217
f 229/288/217 241/300/228 242/301/229 230/289/218
f 230/289/218 242/301/229 243/302/230 231/30/219
f 231/290/219 243/303/230 244/304/231 232/291/220
f 232/291/220 244/304/231 245/305/232 233/292/221
f 233/292/221 245/305/232 246/306/233 234/293/222
f 234/293/222 246/306/233 247/307/234 235/294/223
f 235/294/223 247/307/234 248/308/235 236/295/224
f 236/295/224 248/308/235 237/296/225 225/31/213
f 237/296/225 249/309/236 250/310/237 238/297/226
f 238/297/226 250/310/237 251/311/238 239/298/227
f 239/298/227 251/311/238 252/312/239 240/299/204
f 240/299/204 252/312/239 253/313/240 241/300/228
f 241/300/228 253/313/240 254/314/241 242/301/229
f 242/301/229 254/314/241 255/315/242 243/302/230
f 243/303/230 255/316/242 256/317/243 244/304/231
f 244/304/231 256/317/243 257/318/244 245/305/232
f 245/305/232 257/318/244 258/319/245 246/306/233
f 246/306/233 258/319/245 259/320/246 247/307/234
f 247/307/234 259/320/246 260/321/247 248/308/235
f 248/308/235 260/321/247 249/309/236 237/296/225
f 249/309/236 261/27/248 262/322/249 250/310/237
f 250/310/237 262/322/249 263/323/250 251/311/238
f 251/311/238 263/323/250 264/324/251 252/312/239
f 252/312/239 264/324/251 265/325/252 253/313/240
f 253/313/240 265/325/252 266/326/253 254/314/241
f 254/314/241 266/326/253 267/26/254 255/315/242
f 255/316/242 267/327/254 268/328/255 256/317/243
f 256/317/243 268/328/255 269/329/256 257/318/244
f 257/318/244 269/329/256 270/330/257 258/319/245
f 258/319/245 270/330/257 271/331/258 259/320/246
f 259/320/246 271/331/258 272/332/259 260/321/247
f 260/321/247 272/332/259 261/27/248 249/309/236
f 261/27/248 273/333/260 274/334/261 262/322/249
f 262/322/249 274/334/261 275/335/262 263/323/250
f 263/323/250 275/335/262 276/336/263 264/324/251
f 264/324/251 276/336/263 277/337/264 265/325/252
f 265/325/252 277/337/264 278/338/265 266/326/253
f 266/326/253 278/338/265 279/339/266 267/26/254
f 267/327/254 279/340/266 280/341/267 268/328/255
f 268/328/255 280/341/267 281/342/268 269/329/256
f 269/329/256 281/342/268 282/343/269 270/330/257
f 270/330/257 282/343/269 283/344/270 271/331/258
f 271/331/258 283/344/270 284/345/271 272/332/259
f 272/332/259 284/345/271 273/333/260 261/27/248
f 273/333/260 285/346/272 286/347/273 274/334/261
f 274/334/261 286/347/273 287/348/274 275/335/262
f 275/335/262 287/348/274 288/349/275 276/336/263
f 276/336/263 288/349/275 289/350/276 277/337/264
f 277/337/264 289/350/276 290/351/277 278/338/265
f 278/338/265 290/351/277 291/352/278 279/339/266
f 279/340/266 291/353/278 292/354/279 280/341/267
f 280/341/267 292/354/279 293/355/280 281/342/268
f 281/342/268 293/355/280 294/356/281 282/343/269
f 282/343/269 294/356/281 295/357/282 283/344/270
f 283/344/270 295/357/282 296/358/283 284/345/271
f 284/345/271 296/358/283 285/346/272 273/333/260
f 285/346/272 297/13/284 298/359/285 286/347/273
f 286/347/273 298/359/285 299/360/286 287/348/274
f 287/348/274 299/360/286 300/14/287 288/349/275
f 288/349/275 300/14/287 301/361/288 289/350/276
f 289/350/276 301/361/288 302/362/289 290/351/277
f 290/351/277 302/362/289 303/23/290 291/352/278
f 291/353/278 303/363/290 304/364/291 292/354/279
f 292/354/279 304/364/291 305/365/292 293/355/280
f 293/355/280 305/365/292 306/366/293 294/356/281
f 294/356/281 306/366/293 307/367/294 295/357/282
f 295/357/282 307/367/294 308/368/295 296/358/283
f 296/358/283 308/368/295 297/13/284 285/346/272
f 297/13/284 309/369/296 310/370/297 298/359/285
f 298/359/285 310/370/297 311/371/298 299/360/286
f 299/360/286 311/371/298 312/372/299 300/14/287
f 300/14/287 312/372/299 313/373/300 301/361/288
f 301/361/288 313/373/300 314/374/301 302/362/289
f 302/362/289 314/374/301 315/375/302 303/23/290
f 303/363/290 315/376/302 316/377/303 304/364/291
f 304/364/291 316/377/303 317/378/304 305/365/292
f 305/365/292 317/378/304 318/379/305 306/366/293
f 306/366/293 318/379/305 319/380/306 307/367/294
f 307/367/294 319/380/306 320/381/307 308/368/295
f 308/368/295 320/381/307 309/369/296 297/13/284
f 309/369/296 321/382/308 322/383/309 310/370/297
f 310/370/297 322/383/309 323/384/310 311/371/298
f 311/371/298 323/384/310 324/385/311 312/372/299
f 312/372/299 324/385/311 325/386/312 313/373/300
f 313/373/300 325/386/312 326/387/313 314/374/301
f 314/374/301 326/387/313 327/388/314 315/375/302
f 315/376/302 327/389/314 328/390/315 316/377/303
f 316/377/303 328/390/315 329/391/316 317/378/304
f 317/378/304 329/391/316 330/392/317 318/379/305
f 318/379/305 330/392/317 331/393/318 319/380/306
f 319/380/306 331/393/318 332/394/319 320/381/307
f 320/381/307 332/394/319 321/382/308 309/369/296
f 321/382/308 333/20/320 334/395/321 322/383/309
f 322/383/309 334/395/321 335/396/322 323/384/310
f 323/384/310 335/396/322 336/397/323 324/385/311
f 324/385/311 336/397/323 337/398/324 325/386/312
f 325/386/312 337/398/324 338/399/325 326/387/313
f 326/387/313 338/399/325 339/19/326 327/388/314
f 327/389/314 339/400/326 340/401/327 328/390/315
f 328/390/315 340/401/327 341/402/328 329/391/316
f 329/391/316 341/402/328 342/403/329 330/392/317
f 330/392/317 342/403/329 343/404/330 331/393/318
f 331/393/318 343/404/330 344/405/331 332/394/319
f 332/394/319 344/405/331 333/20/320 321/382/308
f 333/20/320 345/406/332 346/407/333 334/395/321
f 334/395/321 346/407/333 347/408/334 335/396/322
f 335/396/322 347/408/334 348/409/335 336/397/323
f 336/397/323 348/409/335 349/410/336 337/398/324
f 337/398/324 349/410/336 350/411/337 338/399/325
f 338/399/325 350/411/337 351/412/338 339/19/326
f 339/400/326 351/413/338 352/414/339 340/401/327
f 340/401/327 352/414/339 353/415/340 341/402/328
f 341/402/328 353/415/340 354/416/341 342/403/329
f 342/403/329 354/416/341 355/417/342 343/404/330
f 343/404/330 355/417/342 356/418/343 344/405/331
f 344/405/331 356/418/343 345/406/332 333/20/320
f 345/406/332 357/419/344 358/420/345 346/407/333
f 346/407/333 358/420/345 359/421/346 347/408/334
f 347/408/334 359/421/346 360/422/347 348/409/335
f 348/409/335 360/422/347 361/423/348 349/410/336
f 349/410/336 361/423/348 362/424/349 350/411/337
f 350/411/337 362/424/349 363/425/350 351/412/338
f 351/413/338 363/426/350 364/427/351 352/414/339
f 352/414/339 364/427/351 365/428/352 353/415/340
f 353/415/340 365/428/352 366/429/353 354/416/341
f 354/416/341 366/429/353 367/430/354 355/417/342
f 355/417/342 367/430/354 368/431/355 356/418/343
f 356/418/343 368/431/355 357/419/344 345/406/332
f 357/419/344 369/15/1 370/432/356 358/420/345
f 358/420/345 370/432/356 371/433/357 359/421/346
f 359/421/346 371/433/357 372/434/358 360/422/347
f 360/422/347 372/434/358 373/435/359 361/423/348
f 361/423/348 373/435/359 374/436/360 362/424/349
f 362/424/349 374/436/360 375/16/3 363/425/350
f 363/426/350 375/437/3 376/438/361 364/427/351
f 364/427/351 376/438/361 377/439/362 365/428/352
f 365/428/352 377/439/362 378/440/363 366/429/353
f 366/429/353 378/440/363 379/441/364 367/430/354
f 367/430/354 379/441/364 380/442/365 368/431/355
f 368/431/355 380/442/365 369/15/1 357/419/344
f 369/443/1 381/444/366 382/445/367 370/446/356
f 370/446/356 382/445/367 383/447/368 371/448/357
f 371/448/357 383/447/368 384/449/369 372/450/358
f 372/450/358 384/449/369 385/451/370 373/452/359
f 373/452/359 385/451/370 386/453/371 374/454/360
f 374/454/360 386/453/371 387/455/372 375/456/3
f 375/457/3 387/458/372 388/459/373 376/460/361
f 376/460/361 388/459/373 389/461/374 377/462/362
f 377/462/362 389/461/374 390/463/375 378/464/363
f 378/464/363 390/463/375 391/465/376 379/466/364
f 379/466/364 391/465/376 392/467/377 380/468/365
f 380/468/365 392/467/377 381/444/366 369/443/1
f 381/444/366 393/469/378 394/470/379 382/445/367
f 382/445/367 394/470/379 395/471/380 383/447/368
f 383/447/368 395/471/380 396/472/381 384/449/369
f 384/449/369 396/472/381 397/473/382 385/451/370
f 385/451/370 397/473/382 398/474/383 386/453/371
f 386/453/371 398/474/383 399/475/384 387/455/372
f 387/458/372 399/476/384 400/477/385 388/459/373
f 388/459/373 400/477/385 401/478/386 389/461/374
f 389/461/374 401/478/386 402/479/387 390/463/375
f 390/463/375 402/479/387 403/480/388 391/465/376
f 391/465/376 403/480/388 404/481/389 392/467/377
f 392/467/377 404/481/389 393/469/378 381/444/366
f 393/469/378 405/70/390 406/482/391 394/470/379
f 394/470/379 406/482/391 407/483/392 395/471/380
f 395/471/380 407/483/392 408/484/393 396/472/381
f 396/472/381 408/484/393 409/485/394 397/473/382
f 397/473/382 409/485/394 410/486/395 398/474/383
f 398/474/383 410/486/395 411/69/396 399/475/384
f 399/476/384 411/487/396 412/488/397 400/477/385
f 400/477/385 412/488/397 413/489/398 401/478/386
f 401/478/386 413/489/398 414/490/399 402/479/387
f 402/479/387 414/490/399 415/491/400 403/480/388
f 403/480/388 415/491/400 416/492/401 404/481/389
f 404/481/389 416/492/401 405/70/390 393/469/378
f 405/70/390 417/493/402 418/494/403 406/482/391
f 406/482/391 418/494/403 419/495/404 407/483/392
f 407/483/392 419/495/404 420/496/405 408/484/393
f 408/484/393 420/496/405 421/497/406 409/485/394
f 409/485/394 421/497/406 422/498/407 410/486/395
f 410/486/395 422/498/407 423/499/408 411/69/396
f 411/487/396 423/500/408 424/501/409 412/488/397
f 412/488/397 424/501/409 425/502/410 413/489/398
f 413/489/398 425/502/410 426/503/411 414/490/399
f 414/490/399 426/503/411 427/504/412 415/491/400
f 415/491/400 427/504/412 428/505/413 416/492/401
f 416/492/401 428/505/413 417/493/402 405/70/390
f 417/493/402 429/506/414 430/507/415 418/494/403
f 418/494/403 430/507/415 431/508/416 419/495/404
f 419/495/404 431/508/416 432/509/417 420/496/405
f 420/496/405 432/509/417 433/510/418 421/497/406
f 421/497/406 433/510/418 434/511/419 422/498/407
f 422/498/407 434/511/419 435/512/420 423/499/408
f 423/500/408 435/513/420 436/514/421 424/501/409
f 424/501/409 436/514/421 437/515/422 425/502/410
f 425/502/410 437/515/422 438/516/423 426/503/411
f 426/503/411 438/516/423 439/517/424 427/504/412
f 427/504/412 439/517/424 440/518/425 428/505/413
f 428/505/413 440/518/425 429/506/414 417/493/402
f 429/506/414 441/11/426 442/519/427 430/507/415
f 430/507/415 442/519/427 443/520/428 431/508/416
f 431/508/416 443/520/428 444/12/429 432/509/417
f 432/509/417 444/12/429 445/521/430 433/510/418
f 433/510/418 445/521/430 446/522/431 434/511/419
f 434/511/419 446/522/431 447/66/432 435/512/420
f 435/513/420 447/523/432 448/524/433 436/514/421
f 436/514/421 448/524/433 449/525/434 437/515/422
f 437/515/422 449/525/434 450/526/435 438/516/423
f 438/516/423 450/526/435 451/527/436 439/517/424
f 439/517/424 451/527/436 452/528/437 440/518/425
f 440/518/425 452/528/437 441/11/426 429/506/414
f 441/11/426 453/529/438 454/530/439 442/519/427
f 442/519/427 454/530/439 455/531/440 443/520/428
f 443/520/428 455/531/440 456/532/441 444/12/429
f 444/12/429 456/532/441 457/533/442 445/521/430
f 445/521/430 457/533/442 458/534/443 446/522/431
f 446/522/431 458/534/443 459/535/444 447/66/432
f 447/523/432 459/536/444 460/537/445 448/524/433
f 448/524/433 460/537/445 461/538/446 449/525/434
f 449/525/434 461/538/446 462/539/447 450/526/435
f 450/526/435 462/539/447 463/540/448 451/527/436
f 451/527/436 463/540/448 464/541/449 452/528/437
f 452/528/437 464/541/449 453/529/438 441/11/426
f 453/529/438 465/542/450 466/543/451 454/530/439
f 454/530/439 466/543/451 467/544/452 455/531/440
f 455/531/440 467/544/452 468/545/453 456/532/441
f 456/532/441 468/545/453 469/546/454 457/533/442
f 457/533/442 469/546/454 470/547/455 458/534/443
f 458/534/443 470/547/455 471/548/456 459/535/444
f 459/536/444 471/549/456 472/550/457 460/537/445
f 460/537/445 472/550/457 473/551/458 461/538/446
f 461/538/446 473/551/458 474/552/459 462/539/447
f 462/539/447 474/552/459 475/553/460 463/540/448
f 463/540/448 475/553/460 476/554/461 464/541/449
f 464/541/449 476/554/461 465/542/450 453/529/438
f 465/542/450 477/63/462 478/555/463 466/543/451
f 466/543/451 478/555/463 479/556/464 467/544/452
f 467/544/452 479/556/464 480/557/465 468/545/453
f 468/545/453 480/557/465 481/558/466 469/546/454
f 469/546/454 481/558/466 482/559/467 470/547/455
f 470/547/455 482/559/467 483/62/468 471/548/456
f 471/549/456 483/560/468 484/561/469 472/550/457
f 472/550/457 484/561/469 485/562/470 473/551/458
f 473/551/458 485/562/470 486/563/471 474/552/459
f 474/552/459 486/563/471 487/564/472 475/553/460
f 475/553/460 487/564/472 488/565/473 476/554/461
f 476/554/461 488/565/473 477/63/462 465/542/450
f 477/63/462 489/566/474 490/567/475 478/555/463
f 478/555/463 490/567/475 491/568/476 479/556/464
f 479/556/464 491/568/476 492/569/477 480/557/465
f 480/557/465 492/569/477 493/570/478 481/558/466
f 481/558/466 493/570/478 494/571/479 482/559/467
f 482/559/467 494/571/479 495/572/480 483/62/468
f 483/560/468 495/573/480 496/574/481 484/561/469
f 484/561/469 496/574/481 497/575/482 485/562/470
f 485/562/470 497/575/482 498/576/483 486/563/471
f 486/563/471 498/576/483 499/577/484 487/564/472
f 487/564/472 499/577/484 500/578/485 488/565/473
f 488/565/473 500/578/485 489/566/474 477/63/462
f 489/566/474 501/579/486 502/580/487 490/567/475
f 490/567/475 502/580/487 503/581/488 491/568/476
f 491/568/476 503/581/488 504/582/489 492/569/477
f 492/569/477 504/582/489 505/583/490 493/570/478
f 493/570/478 505/583/490 506/584/491 494/571/479
f 494/571/479 506/584/491 507/585/492 495/572/480
f 495/573/480 507/586/492 508/587/493 496/574/481
f 496/574/481 508/587/493 509/588/494 497/575/482
f 497/575/482 509/588/494 510/589/495 498/576/483
f 498/576/483 510/589/495 511/590/496 499/577/484
f 499/577/484 511/590/496 512/591/497 500/578/485
f 500/578/485 512/591/497 501/579/486 489/566/474
f 501/579/486 513/59/219 514/592/498 502/580/487
f 502/580/487 514/592/498 515/593/499 503/581/488
f 503/581/488 515/593/499 516/594/500 504/582/489
f 504/582/489 516/594/500 517/595/501 505/583/490
f 505/583/490 517/595/501 518/596/502 506/584/491
f 506/584/491 518/596/502 519/58/213 507/585/492
f 507/586/492 519/597/213 520/598/503 508/587/493
f 508/587/493 520/598/503 521/599/504 509/588/494
f 509/588/494 521/599/504 522/600/505 510/589/495
f 510/589/495 522/600/505 523/601/506 511/590/496
f 511/590/496 523/601/506 524/602/507 512/591/497
f 512/591/497 524/602/507 513/59/219 501/579/486
f 513/59/219 525/603/508 526/604/509 514/592/498
f 514/592/498 526/604/509 527/605/510 515/593/499
f 515/593/499 527/605/510 528/606/511 516/594/500
f 516/594/500 528/606/511 529/607/512 517/595/501
f 517/595/501 529/607/512 530/608/513 518/596/502
f 518/596/502 530/608/513 531/609/514 519/58/213
f 519/597/213 531/610/514 532/611/515 520/598/503
f 520/598/503 532/611/515 533/612/516 521/599/504
f 521/599/504 533/612/516 534/613/495 522/600/505
f 522/600/505 534/613/495 535/614/517 523/601/506
f 523/601/506 535/614/517 536/615/518 524/602/507
f 524/602/507 536/615/518 525/603/508 513/59/219
f 525/603/508 537/616/519 538/617/520 526/604/509
f 526/604/509 538/617/520 539/618/521 527/605/510
f 527/605/510 539/618/521 540/619/522 528/606/511
f 528/606/511 540/619/522 541/620/523 529/607/512
f 529/607/512 541/620/523 542/621/524 530/608/513
f 530/608/513 542/621/524 543/622/525 531/609/514
f 531/610/514 543/623/525 544/624/526 532/611/515
f 532/611/515 544/624/526 545/625/527 533/612/516
f 533/612/516 545/625/527 546/626/528 534/613/495
f 534/613/495 546/626/528 547/627/529 535/614/517
f 535/614/517 547/627/529 548/628/530 536/615/518
f 536/615/518 548/628/530 537/616/519 525/603/508
f 537/616/519 549/55/531 550/629/532 538/617/520
f 538/617/520 550/629/532 551/630/533 539/618/521
f 539/618/521 551/630/533 552/631/534 540/619/522
f 540/619/522 552/631/534 553/632/535 541/620/523
f 541/620/523 553/632/535 554/633/536 542/621/524
f 542/621/524 554/633/536 555/54/537 543/622/525
f 543/623/525 555/634/537 556/635/538 544/624/526
f 544/624/526 556/635/538 557/636/539 545/625/527
f 545/625/527 557/636/539 558/637/540 546/626/528
f 546/626/528 558/637/540 559/638/541 547/627/529
f 547/627/529 559/638/541 560/639/542 548/628/530
f 548/628/530 560/639/542 549/55/531 537/616/519
f 549/55/531 561/640/543 562/641/544 550/629/532
f 550/629/532 562/641/544 563/642/545 551/630/533
f 551/630/533 563/642/545 564/643/546 552/631/534
f 552/631/534 564/643/546 565/644/547 553/632/535
f 553/632/535 565/644/547 566/645/548 554/633/536
f 554/633/536 566/645/548 567/646/549 555/54/537
f 555/634/537 567/647/549 568/648/550 556/635/538
f 556/635/538 568/648/550 569/649/551 557/636/539
f 557/636/539 569/649/551 570/650/552 558/637/540
f 558/637/540 570/650/552 571/651/553 559/638/541
f 559/638/541 571/651/553 572/652/554 560/639/542
f 560/639/542 572/652/554 561/640/543 549/55/531
f 561/640/543 573/653/555 574/654/556 562/641/544
f 562/641/544 574/654/556 575/655/557 563/642/545
f 563/642/545 575/655/557 576/656/558 564/643/546
f 564/643/546 576/656/558 577/657/559 565/644/547
f 565/644/547 577/657/559 578/658/560 566/645/548
f 566/645/548 578/658/560 579/659/561 567/646/549
f 567/647/549 579/660/561 580/661/562 568/648/550
f 568/648/550 580/661/562 581/662/563 569/649/551
f 569/649/551 581/662/563 582/663/564 570/650/552
f 570/650/552 582/663/564 583/664/565 571/651/553
f 571/651/553 583/664/565 584/665/566 572/652/554
f 572/652/554 584/665/566 573/653/555 561/640/543
f 573/653/555 585/6/567 586/666/568 574/654/556
f 574/654/556 586/666/568 587/667/569 575/655/557
f 575/655/557 587/667/569 588/8/570 576/656/558
f 576/656/558 588/8/570 589/668/571 577/657/559
f 577/657/559 589/668/571 590/669/572 578/658/560
f 578/658/560 590/669/572 591/10/573 579/659/561
f 579/660/561 591/670/573 592/671/574 580/661/562
f 580/661/562 592/671/574 593/672/575 581/662/563
f 581/662/563 593/672/575 594/4/576 582/663/564
f 582/663/564 594/4/576 595/673/577 583/664/565
f 583/664/565 595/673/577 596/674/578 584/665/566
f 584/665/566 596/674/578 585/6/567 573/653/555
f 585/6/567 597/675/579 598/676/580 586/666/568
f 586/666/568 598/676/580 599/677/581 587/667/569
f 587/667/569 599/677/581 600/678/582 588/8/570
f 588/8/570 600/678/582 601/679/583 589/668/571
f 589/668/571 601/679/583 602/680/584 590/669/572
f 590/669/572 602/680/584 603/681/585 591/10/573
f 591/670/573 603/682/585 604/683/586 592/671/574
f 592/671/574 604/683/586 605/684/587 593/672/575
f 593/672/575 605/684/587 606/685/588 594/4/576
f 594/4/576 606/685/588 607/686/589 595/673/577
f 595/673/577 607/686/589 608/687/590 596/674/578
f 596/674/578 608/687/590 597/675/579 585/6/567
f 597/675/579 609/688/591 610/689/592 598/676/580
f 598/676/580 610/689/592 611/690/593 599/677/581
f 599/677/581 611/690/593 612/691/594 600/678/582
f 600/678/582 612/691/594 613/692/595 601/679/583
f 601/679/583 613/692/595 614/693/596 602/680/584
f 602/680/584 614/693/596 615/694/597 603/681/585
f 603/682/585 615/695/597 616/696/598 604/683/586
f 604/683/586 616/696/598 617/697/599 605/684/587
f 605/684/587 617/697/599 618/698/600 606/685/588
f 606/685/588 618/698/600 619/699/601 607/686/589
f 607/686/589 619/699/601 620/700/602 608/687/590
f 608/687/590 620/700/602 609/688/591 597/675/579
f 609/688/591 621/49/603 622/701/604 610/689/592
f 610/689/592 622/701/604 623/702/605 611/690/593
f 611/690/593 623/702/605 624/703/606 612/691/594
f 612/691/594 624/703/606 625/704/607 613/692/595
f 613/692/595 625/704/607 626/705/608 614/693/596
f 614/693/596 626/705/608 627/48/609 615/694/597
f 615/695/597 627/706/609 628/707/610 616/696/598
f 616/696/598 628/707/610 629/708/611 617/697/599
f 617/697/599 629/708/611 630/709/612 618/698/600
f 618/698/600 630/709/612 631/710/613 619/699/601
f 619/699/601 631/710/613 632/711/614 620/700/602
f 620/700/602 632/711/614 621/49/603 609/688/591
f 621/49/603 633/712/615 634/713/616 622/701/604
f 622/701/604 634/713/616 635/714/617 623/702/605
f 623/702/605 635/714/617 636/715/618 624/703/606
f 624/703/606 636/715/618 637/716/619 625/704/607
f 625/704/607 637/716/619 638/717/620 626/705/608
f 626/705/608 638/717/620 639/718/621 627/48/609
f 627/706/609 639/719/621 640/720/622 628/707/610
f 628/707/610 640/720/622 641/721/623 629/708/611
f 629/708/611 641/721/623 642/722/624 630/709/612
f 630/709/612 642/722/624 643/723/625 631/710/613
f 631/710/613 643/723/625 644/724/626 632/711/614
f 632/711/614 644/724/626 633/712/615 621/49/603
f 633/712/615 645/725/627 646/726/628 634/713/616
f 634/713/616 646/726/628 647/727/629 635/714/617
f 635/714/617 647/727/629 648/728/630 636/715/618
f 636/715/618 648/728/630 649/729/631 637/716/619
f 637/716/619 649/729/631 650/730/632 638/717/620
f 638/717/620 650/730/632 651/731/633 639/718/621
f 639/719/621 651/732/633 652/733/634 640/720/622
f 640/720/622 652/733/634 653/734/635 641/721/623
f 641/721/623 653/734/635 654/735/636 642/722/624
f 642/722/624 654/735/636 655/736/637 643/723/625
f 643/723/625 655/736/637 656/737/638 644/724/626
f 644/724/626 656/737/638 645/725/627 633/712/615
f 645/725/627 81/45/3 82/141/73 646/726/628
f 646/726/628 82/141/73 83/143/75 647/727/629
f 647/727/629 83/143/75 84/145/77 648/728/630
f 648/728/630 84/145/77 85/147/79 649/729/631
f 649/729/631 85/147/79 86/149/81 650/730/632
f 650/730/632 86/149/81 87/44/1 651/731/633
f 651/732/633 87/151/1 88/154/84 652/733/634
f 652/733/634 88/154/84 89/156/86 653/734/635
f 653/734/635 89/156/86 90/158/88 654/735/636
f 654/735/636 90/158/88 91/160/90 655/736/637
f 655/736/637 91/160/90 92/162/92 656/737/638
f 656/737/638 92/162/92 81/45/3 645/725/627
