# Blender 5.1.2
# www.blender.org
mtllib keykit bottom.mtl
o Cone
o Cube
v 0.474544 0.206107 0.359843
v 0.496029 0.197495 0.377029
v -0.484024 0.206107 0.359843
v -0.504795 0.197782 0.375772
v 0.496029 0.197495 -0.390525
v 0.474544 0.206107 -0.373356
v -0.484024 0.206107 -0.373356
v -0.504795 0.197782 -0.390525
v -0.504795 -0.189031 0.373801
v -0.489745 -0.195064 0.362259
v -0.489745 -0.195064 -0.373593
v -0.504795 -0.189031 -0.385134
v 0.475735 -0.195064 0.362259
v 0.496029 -0.187344 0.377029
v 0.496029 -0.186929 -0.389157
v 0.475735 -0.195064 -0.373593
v 0.496029 0.197495 -0.384150
v 0.496029 0.197495 -0.390525
v 0.487716 -0.186213 -0.390525
v 0.496029 -0.186929 -0.389157
v -0.504795 0.197782 -0.390525
v -0.504795 0.197782 -0.383604
v -0.504795 -0.189031 -0.385134
v -0.495771 -0.186213 -0.390525
v -0.504795 0.197782 0.375772
v -0.493201 0.197129 0.377029
v -0.493201 -0.187344 0.377029
v -0.504795 -0.189031 0.373801
v 0.496029 0.197495 0.377029
v 0.496029 0.197495 0.368252
v 0.496029 -0.187344 0.377029
v 0.484585 -0.187344 0.377029
v 0.345763 -0.193988 0.244162
v 0.520325 -0.193988 0.422852
v 0.524774 0.205622 0.229920
v 0.530516 0.217956 0.235696
v 0.354178 0.217956 0.235696
v 0.359920 0.205622 0.229920
v 0.530569 0.217956 0.235750
v 0.537541 0.202981 0.242763
v 0.537541 0.202981 0.405533
v 0.530569 0.217956 0.412546
v 0.537541 -0.183002 0.242763
v 0.532427 -0.193988 0.237618
v 0.532427 -0.193988 0.410678
v 0.537541 -0.183002 0.405533
v 0.531140 -0.193988 0.236324
v 0.524774 -0.180314 0.229920
v 0.359920 -0.180314 0.229920
v 0.353554 -0.193988 0.236324
v 0.363096 -0.193988 0.422852
v 0.345763 -0.193988 0.405414
v 0.345763 0.202254 0.244162
v 0.353073 0.217956 0.236808
v 0.353073 0.217956 0.412768
v 0.345763 0.202254 0.405414
v 0.527793 0.217956 0.415340
v 0.520325 0.201916 0.422852
v 0.363096 0.201916 0.422852
v 0.355629 0.217956 0.415340
v 0.345763 -0.193988 -0.419637
v 0.520325 -0.193988 -0.240947
v 0.524774 0.205622 -0.433879
v 0.530516 0.217956 -0.428103
v 0.354178 0.217956 -0.428103
v 0.359920 0.205622 -0.433879
v 0.530569 0.217956 -0.428049
v 0.537541 0.202981 -0.421036
v 0.537541 0.202981 -0.258266
v 0.530569 0.217956 -0.251253
v 0.537541 -0.183002 -0.421036
v 0.532427 -0.193988 -0.426181
v 0.532427 -0.193988 -0.253121
v 0.537541 -0.183002 -0.258266
v 0.531140 -0.193988 -0.427475
v 0.524774 -0.180314 -0.433879
v 0.359920 -0.180314 -0.433879
v 0.353554 -0.193988 -0.427475
v 0.363096 -0.193988 -0.240947
v 0.345763 -0.193988 -0.258385
v 0.345763 0.202254 -0.419637
v 0.353073 0.217956 -0.426991
v 0.353073 0.217956 -0.251031
v 0.345763 0.202254 -0.258385
v 0.527793 0.217956 -0.248460
v 0.520325 0.201916 -0.240947
v 0.363096 0.201916 -0.240947
v 0.355629 0.217956 -0.248460
v -0.545848 -0.193988 -0.419637
v -0.371286 -0.193988 -0.240947
v -0.366837 0.205622 -0.433879
v -0.361096 0.217956 -0.428103
v -0.537434 0.217956 -0.428103
v -0.531692 0.205622 -0.433879
v -0.361042 0.217956 -0.428049
v -0.354071 0.202981 -0.421036
v -0.354071 0.202981 -0.258266
v -0.361042 0.217956 -0.251253
v -0.354071 -0.183002 -0.421036
v -0.359185 -0.193988 -0.426181
v -0.359185 -0.193988 -0.253121
v -0.354071 -0.183002 -0.258266
v -0.360472 -0.193988 -0.427475
v -0.366837 -0.180314 -0.433879
v -0.531692 -0.180314 -0.433879
v -0.538058 -0.193988 -0.427475
v -0.528515 -0.193988 -0.240947
v -0.545848 -0.193988 -0.258385
v -0.545848 0.202254 -0.419637
v -0.538539 0.217956 -0.426991
v -0.538539 0.217956 -0.251031
v -0.545848 0.202254 -0.258385
v -0.363819 0.217956 -0.248460
v -0.371286 0.201916 -0.240947
v -0.528515 0.201916 -0.240947
v -0.535983 0.217956 -0.248460
v -0.552291 -0.193988 0.244162
v -0.377729 -0.193988 0.422852
v -0.373280 0.205622 0.229920
v -0.367538 0.217956 0.235696
v -0.543876 0.217956 0.235696
v -0.538134 0.205622 0.229920
v -0.367485 0.217956 0.235750
v -0.360514 0.202981 0.242763
v -0.360514 0.202981 0.405533
v -0.367485 0.217956 0.412546
v -0.360514 -0.183002 0.242763
v -0.365628 -0.193988 0.237618
v -0.365628 -0.193988 0.410678
v -0.360514 -0.183002 0.405533
v -0.366914 -0.193988 0.236324
v -0.373280 -0.180314 0.229920
v -0.538134 -0.180314 0.229920
v -0.544500 -0.193988 0.236324
v -0.534958 -0.193988 0.422852
v -0.552291 -0.193988 0.405414
v -0.552291 0.202254 0.244162
v -0.544981 0.217956 0.236808
v -0.544981 0.217956 0.412768
v -0.552291 0.202254 0.405414
v -0.370262 0.217956 0.415340
v -0.377729 0.201916 0.422852
v -0.534958 0.201916 0.422852
v -0.542425 0.217956 0.415340
vn 0.0001 0.8968 -0.4424
vn -0.3721 -0.9282 -0.0000
vn 0.3638 -0.9315 -0.0003
vn -0.0000 -1.0000 -0.0000
vn 0.6815 -0.0026 -0.7318
vn -0.8056 -0.0083 -0.5924
vn -0.3721 0.9282 -0.0000
vn -0.0000 -0.0000 -1.0000
vn -0.0000 -0.8862 -0.4632
vn -0.1898 -0.0025 0.9818
vn -0.0002 0.8902 0.4557
vn -1.0000 -0.0000 -0.0000
vn 0.6086 -0.0000 0.7935
vn -0.0000 -0.0000 1.0000
vn 1.0000 -0.0000 -0.0000
vn 0.3721 0.9282 -0.0000
vn -0.0000 -0.8862 0.4632
vn -0.0000 0.4241 -0.9056
vn 0.9066 0.4220 -0.0000
vn 0.9066 -0.4220 -0.0000
vn -0.0000 -0.4241 -0.9056
vn 0.7092 -0.0000 -0.7050
vn -0.9066 0.4220 -0.0000
vn -0.7092 -0.0000 -0.7050
vn -0.0000 0.4241 0.9056
vn 0.7092 -0.0000 0.7050
vn -0.0000 1.0000 -0.0000
vn -0.7092 -0.0000 0.7050
vt 0.625037 0.249806
vt 0.628578 0.502021
vt 0.619633 0.500000
vt 0.619812 0.250000
vt 0.125000 0.747069
vt 0.125000 0.503635
vt 0.128759 0.505515
vt 0.128759 0.745189
vt 0.378380 0.500446
vt 0.378207 0.750000
vt 0.369931 0.745189
vt 0.369931 0.505515
vt 0.619633 0.502077
vt 0.377985 0.498616
vt 0.378759 0.248244
vt 0.619812 0.247746
vt 0.380492 0.252261
vt 0.625000 0.005598
vt 0.619812 0.000409
vt 0.127300 0.499987
vt 0.379811 0.000000
vt 0.619402 0.000000
vt 0.378759 0.001051
vt 0.619812 1.000000
vt 0.619405 0.997104
vt 0.619633 0.750000
vt 0.628578 0.748004
vt 0.625076 0.994655
vt 0.619633 0.747141
vt 0.377254 0.751906
vt 0.379792 0.997104
vt 0.127933 0.750000
vt 0.625350 0.261319
vt 0.628884 0.497222
vt 0.622730 0.488905
vt 0.617927 0.268893
vt 0.628855 0.497369
vt 0.628029 0.742705
vt 0.615912 0.727558
vt 0.615912 0.516642
vt 0.372778 0.738669
vt 0.372778 0.505531
vt 0.381667 0.516642
vt 0.381667 0.727558
vt 0.144332 0.499123
vt 0.375230 0.488905
vt 0.372219 0.502735
vt 0.135639 0.507815
vt 0.382889 0.268893
vt 0.125000 0.518455
vt 0.367519 0.764961
vt 0.149081 0.751486
vt 0.125000 0.727405
vt 0.625000 0.017831
vt 0.625152 0.244477
vt 0.615471 0.231545
vt 0.615471 0.022595
vt 0.375000 0.022595
vt 0.375000 0.231545
vt 0.374759 0.252100
vt 0.630317 0.754145
vt 0.625743 0.976662
vt 0.615950 0.976662
vt 0.622164 0.764961
vt 0.374257 0.976662
vt 0.863509 0.506963
vt 0.865018 0.508472
vt 0.864845 0.737560
vt 0.861294 0.741111
vt 0.375000 0.000000
vt 0.615265 0.000000
vt 0.625000 0.013284
s 0
f 7/1/1 6/2/1 5/3/1 8/4/1
f 9/5/2 12/6/2 11/7/2 10/8/2
f 15/9/3 14/10/3 13/11/3 16/12/3
f 11/7/4 16/12/4 13/11/4 10/8/4
f 17/13/5 20/9/5 19/14/5 18/3/5
f 23/15/6 22/16/6 21/4/6 24/17/6
f 3/18/7 7/1/7 8/4/7 21/4/7 22/16/7 4/19/7
f 24/17/8 21/4/8 8/4/8 5/3/8 18/3/8 19/14/8
f 15/9/9 16/12/9 11/7/9 12/6/9 23/6/9 24/20/9 19/14/9 20/9/9
f 27/21/10 26/22/10 25/19/10 28/23/10
f 25/24/11 26/25/11 2/26/11 1/27/11 3/28/11 4/24/11
f 9/23/12 28/23/12 25/19/12 4/19/12 22/16/12 23/15/12 12/15/12
f 31/10/13 30/29/13 29/26/13 32/30/13
f 32/30/14 29/26/14 2/26/14 26/25/14 27/31/14
f 15/9/15 20/9/15 17/13/15 30/29/15 31/10/15 14/10/15
f 5/3/16 6/2/16 1/27/16 2/26/16 29/26/16 30/29/16 17/13/16 18/3/16
f 9/5/17 10/8/17 13/11/17 14/10/17 31/10/17 32/30/17 27/32/17 28/5/17
f 37/33/18 36/34/18 35/35/18 38/36/18
f 39/37/19 42/38/19 41/39/19 40/40/19
f 45/41/20 44/42/20 43/43/20 46/44/20
f 43/43/15 40/40/15 41/39/15 46/44/15
f 49/45/21 48/46/21 47/47/21 50/48/21
f 49/49/8 38/36/8 35/35/8 48/46/8
f 39/37/22 40/40/22 43/43/22 44/42/22 47/47/22 48/46/22 35/35/22 36/34/22
f 33/50/4 50/48/4 47/47/4 44/42/4 45/41/4 34/51/4 51/52/4 52/53/4
f 55/54/23 54/55/23 53/56/23 56/57/23
f 52/58/12 56/57/12 53/56/12 33/59/12
f 37/33/24 38/36/24 49/49/24 50/60/24 33/59/24 53/56/24 54/55/24
f 57/61/25 60/62/25 59/63/25 58/64/25
f 34/51/14 58/64/14 59/63/14 51/65/14
f 57/61/26 58/64/26 34/51/26 45/41/26 46/44/26 41/39/26 42/38/26
f 39/37/27 36/34/27 37/66/27 54/67/27 55/68/27 60/69/27 57/61/27 42/38/27
f 51/70/28 59/71/28 60/72/28 55/54/28 56/57/28 52/58/28
f 65/33/18 64/34/18 63/35/18 66/36/18
f 67/37/19 70/38/19 69/39/19 68/40/19
f 73/41/20 72/42/20 71/43/20 74/44/20
f 71/43/15 68/40/15 69/39/15 74/44/15
f 77/45/21 76/46/21 75/47/21 78/48/21
f 77/49/8 66/36/8 63/35/8 76/46/8
f 67/37/22 68/40/22 71/43/22 72/42/22 75/47/22 76/46/22 63/35/22 64/34/22
f 61/50/4 78/48/4 75/47/4 72/42/4 73/41/4 62/51/4 79/52/4 80/53/4
f 83/54/23 82/55/23 81/56/23 84/57/23
f 80/58/12 84/57/12 81/56/12 61/59/12
f 65/33/24 66/36/24 77/49/24 78/60/24 61/59/24 81/56/24 82/55/24
f 85/61/25 88/62/25 87/63/25 86/64/25
f 62/51/14 86/64/14 87/63/14 79/65/14
f 85/61/26 86/64/26 62/51/26 73/41/26 74/44/26 69/39/26 70/38/26
f 67/37/27 64/34/27 65/66/27 82/67/27 83/68/27 88/69/27 85/61/27 70/38/27
f 79/70/28 87/71/28 88/72/28 83/54/28 84/57/28 80/58/28
f 93/33/18 92/34/18 91/35/18 94/36/18
f 95/37/19 98/38/19 97/39/19 96/40/19
f 101/41/20 100/42/20 99/43/20 102/44/20
f 99/43/15 96/40/15 97/39/15 102/44/15
f 105/45/21 104/46/21 103/47/21 106/48/21
f 105/49/8 94/36/8 91/35/8 104/46/8
f 95/37/22 96/40/22 99/43/22 100/42/22 103/47/22 104/46/22 91/35/22 92/34/22
f 89/50/4 106/48/4 103/47/4 100/42/4 101/41/4 90/51/4 107/52/4 108/53/4
f 111/54/23 110/55/23 109/56/23 112/57/23
f 108/58/12 112/57/12 109/56/12 89/59/12
f 93/33/24 94/36/24 105/49/24 106/60/24 89/59/24 109/56/24 110/55/24
f 113/61/25 116/62/25 115/63/25 114/64/25
f 90/51/14 114/64/14 115/63/14 107/65/14
f 113/61/26 114/64/26 90/51/26 101/41/26 102/44/26 97/39/26 98/38/26
f 95/37/27 92/34/27 93/66/27 110/67/27 111/68/27 116/69/27 113/61/27 98/38/27
f 107/70/28 115/71/28 116/72/28 111/54/28 112/57/28 108/58/28
f 121/33/18 120/34/18 119/35/18 122/36/18
f 123/37/19 126/38/19 125/39/19 124/40/19
f 129/41/20 128/42/20 127/43/20 130/44/20
f 127/43/15 124/40/15 125/39/15 130/44/15
f 133/45/21 132/46/21 131/47/21 134/48/21
f 133/49/8 122/36/8 119/35/8 132/46/8
f 123/37/22 124/40/22 127/43/22 128/42/22 131/47/22 132/46/22 119/35/22 120/34/22
f 117/50/4 134/48/4 131/47/4 128/42/4 129/41/4 118/51/4 135/52/4 136/53/4
f 139/54/23 138/55/23 137/56/23 140/57/23
f 136/58/12 140/57/12 137/56/12 117/59/12
f 121/33/24 122/36/24 133/49/24 134/60/24 117/59/24 137/56/24 138/55/24
f 141/61/25 144/62/25 143/63/25 142/64/25
f 118/51/14 142/64/14 143/63/14 135/65/14
f 141/61/26 142/64/26 118/51/26 129/41/26 130/44/26 125/39/26 126/38/26
f 123/37/27 120/34/27 121/66/27 138/67/27 139/68/27 144/69/27 141/61/27 126/38/27
f 135/70/28 143/71/28 144/72/28 139/54/28 140/57/28 136/58/28
