# Blender 5.1.2
# www.blender.org
mtllib keykit top.mtl
o Cone
o Cube
v -0.479789 -0.040937 0.364166
v -0.501125 -0.032344 0.381545
v 0.478740 -0.040078 0.355480
v 0.499647 -0.031733 0.371221
v -0.508079 -0.032344 -0.385977
v -0.486432 -0.040937 -0.369003
v 0.472097 -0.040078 -0.377688
v 0.492703 -0.031733 -0.395045
v 0.499282 0.355079 0.369253
v 0.484123 0.361098 0.357848
v 0.477456 0.361098 -0.377974
v 0.492406 0.355079 -0.389651
v -0.481317 0.360233 0.366596
v -0.501470 0.352495 0.381549
v -0.508411 0.352080 -0.384605
v -0.487984 0.360233 -0.369226
v -0.508022 -0.032344 -0.379601
v -0.508079 -0.032344 -0.385977
v -0.500110 0.351372 -0.386049
v -0.508411 0.352080 -0.384605
v 0.492703 -0.031733 -0.395045
v 0.492766 -0.031733 -0.388124
v 0.492406 0.355079 -0.389651
v 0.483336 0.352254 -0.394960
v 0.499647 -0.031733 0.371221
v 0.488065 -0.031091 0.372582
v 0.487720 0.353382 0.372585
v 0.499282 0.355079 0.369253
v -0.501125 -0.032344 0.381545
v -0.501204 -0.032344 0.372769
v -0.501470 0.352495 0.381549
v -0.490026 0.352506 0.381445
v -0.352420 0.359274 0.247326
v -0.525355 0.359117 0.427590
v -0.531194 -0.040496 0.234703
v -0.536873 -0.052835 0.240531
v -0.360542 -0.052677 0.238934
v -0.366347 -0.040349 0.233210
v -0.536925 -0.052835 0.240585
v -0.543846 -0.037867 0.247662
v -0.542371 -0.037867 0.410425
v -0.535323 -0.052835 0.417374
v -0.544192 0.348117 0.247665
v -0.539135 0.359107 0.242474
v -0.537567 0.359107 0.415526
v -0.542717 0.348117 0.410428
v -0.537860 0.359108 0.241168
v -0.531540 0.345440 0.234706
v -0.366693 0.345588 0.233213
v -0.360281 0.359267 0.239559
v -0.368133 0.359258 0.426166
v -0.350959 0.359274 0.408572
v -0.352065 -0.036968 0.247323
v -0.359427 -0.052676 0.240035
v -0.357832 -0.052676 0.415988
v -0.350604 -0.036968 0.408569
v -0.532521 -0.052833 0.420143
v -0.525001 -0.036786 0.427587
v -0.367778 -0.036645 0.426162
v -0.360365 -0.052678 0.418583
v -0.358434 0.359274 -0.416446
v -0.531370 0.359117 -0.236182
v -0.537209 -0.040496 -0.429069
v -0.542887 -0.052835 -0.423241
v -0.366556 -0.052677 -0.424839
v -0.372361 -0.040349 -0.430562
v -0.542940 -0.052835 -0.423187
v -0.549861 -0.037867 -0.416110
v -0.548386 -0.037867 -0.253347
v -0.541338 -0.052835 -0.246398
v -0.550207 0.348117 -0.416107
v -0.545149 0.359107 -0.421298
v -0.543581 0.359107 -0.248246
v -0.548732 0.348117 -0.253344
v -0.543874 0.359108 -0.422604
v -0.537555 0.345440 -0.429066
v -0.372707 0.345588 -0.430559
v -0.366296 0.359267 -0.424213
v -0.374148 0.359258 -0.237606
v -0.356973 0.359274 -0.255200
v -0.358079 -0.036968 -0.416449
v -0.365441 -0.052676 -0.423737
v -0.363847 -0.052676 -0.247784
v -0.356618 -0.036968 -0.255204
v -0.538536 -0.052833 -0.243630
v -0.531015 -0.036786 -0.236185
v -0.373793 -0.036645 -0.237610
v -0.366379 -0.052678 -0.245190
v 0.533141 0.360073 -0.424525
v 0.360205 0.359916 -0.244261
v 0.354366 -0.039697 -0.437147
v 0.348688 -0.052036 -0.431319
v 0.525019 -0.051878 -0.432917
v 0.519214 -0.039550 -0.438641
v 0.348635 -0.052036 -0.431265
v 0.341714 -0.037068 -0.424189
v 0.343189 -0.037068 -0.261426
v 0.350237 -0.052036 -0.254476
v 0.341368 0.348916 -0.424186
v 0.346426 0.359905 -0.429377
v 0.347994 0.359905 -0.256325
v 0.342843 0.348916 -0.261423
v 0.347701 0.359907 -0.430683
v 0.354020 0.346239 -0.437144
v 0.518868 0.346387 -0.438638
v 0.525279 0.360066 -0.432292
v 0.517427 0.360057 -0.245685
v 0.534602 0.360073 -0.263279
v 0.533496 -0.036169 -0.424528
v 0.526134 -0.051877 -0.431816
v 0.527728 -0.051877 -0.255863
v 0.534957 -0.036169 -0.263282
v 0.353039 -0.052034 -0.251708
v 0.360560 -0.035987 -0.244264
v 0.517782 -0.035846 -0.245688
v 0.525195 -0.051880 -0.253268
v 0.545597 0.360079 0.239189
v 0.372662 0.359922 0.419453
v 0.366823 -0.039692 0.226566
v 0.361145 -0.052030 0.232394
v 0.537475 -0.051872 0.230797
v 0.531670 -0.039544 0.225073
v 0.361092 -0.052030 0.232448
v 0.354171 -0.037062 0.239525
v 0.355646 -0.037062 0.402288
v 0.362694 -0.052030 0.409237
v 0.353825 0.348921 0.239528
v 0.358883 0.359911 0.234337
v 0.360451 0.359911 0.407389
v 0.355300 0.348921 0.402291
v 0.360157 0.359912 0.233031
v 0.366477 0.346245 0.226569
v 0.531325 0.346392 0.225076
v 0.537736 0.360072 0.231422
v 0.529884 0.360063 0.418029
v 0.547059 0.360079 0.400435
v 0.545952 -0.036163 0.239186
v 0.538590 -0.051871 0.231898
v 0.540185 -0.051871 0.407851
v 0.547414 -0.036163 0.400431
v 0.365496 -0.052028 0.412005
v 0.373016 -0.035981 0.419450
v 0.530239 -0.035840 0.418025
v 0.537652 -0.051874 0.410446
vn -0.0033 -0.8968 -0.4423
vn 0.3712 0.9285 -0.0034
vn -0.3647 0.9311 0.0030
vn -0.0009 1.0000 -0.0000
vn -0.6881 0.0020 -0.7256
vn 0.8002 0.0090 -0.5997
vn 0.3729 -0.9279 -0.0034
vn -0.0091 -0.0000 -1.0000
vn -0.0050 0.8862 -0.4632
vn 0.1986 0.0027 0.9801
vn 0.0051 -0.8902 0.4556
vn 1.0000 0.0009 -0.0091
vn -0.6013 -0.0005 0.7990
vn 0.0091 -0.0000 1.0000
vn -1.0000 -0.0009 0.0091
vn -0.3712 -0.9285 0.0034
vn 0.0034 0.8862 0.4632
vn -0.0078 -0.4241 -0.9056
vn -0.9062 -0.4229 0.0082
vn -0.9069 0.4212 0.0082
vn -0.0086 0.4241 -0.9056
vn -0.7156 -0.0006 -0.6985
vn 0.9069 -0.4212 -0.0082
vn 0.7028 0.0006 -0.7114
vn 0.0086 -0.4241 0.9056
vn -0.7028 -0.0006 0.7114
vn 0.0009 -1.0000 -0.0000
vn 0.7156 0.0006 0.6985
vt 0.625037 0.249806
vt 0.628578 0.502021
vt 0.619633 0.500000
vt 0.619812 0.250000
vt 0.125000 0.747069
vt 0.125000 0.503635
vt 0.128759 0.505515
vt 0.128759 0.745189
vt 0.378380 0.500446
vt 0.378207 0.750000
vt 0.369931 0.745189
vt 0.369931 0.505515
vt 0.619633 0.502077
vt 0.377985 0.498616
vt 0.378759 0.248244
vt 0.619812 0.247746
vt 0.380492 0.252261
vt 0.625000 0.005598
vt 0.619812 0.000409
vt 0.127300 0.499987
vt 0.379811 0.000000
vt 0.619402 0.000000
vt 0.378759 0.001051
vt 0.619812 1.000000
vt 0.619405 0.997104
vt 0.619633 0.750000
vt 0.628578 0.748004
vt 0.625076 0.994655
vt 0.619633 0.747141
vt 0.377254 0.751906
vt 0.379792 0.997104
vt 0.127933 0.750000
vt 0.625350 0.261319
vt 0.628884 0.497222
vt 0.622730 0.488905
vt 0.617927 0.268893
vt 0.628855 0.497369
vt 0.628029 0.742705
vt 0.615912 0.727558
vt 0.615912 0.516642
vt 0.372778 0.738669
vt 0.372778 0.505531
vt 0.381667 0.516642
vt 0.381667 0.727558
vt 0.144332 0.499123
vt 0.375230 0.488905
vt 0.372219 0.502735
vt 0.135639 0.507815
vt 0.382889 0.268893
vt 0.125000 0.518455
vt 0.367519 0.764961
vt 0.149081 0.751486
vt 0.125000 0.727405
vt 0.625000 0.017831
vt 0.625152 0.244477
vt 0.615471 0.231545
vt 0.615471 0.022595
vt 0.375000 0.022595
vt 0.375000 0.231545
vt 0.374759 0.252100
vt 0.630317 0.754145
vt 0.625743 0.976662
vt 0.615950 0.976662
vt 0.622164 0.764961
vt 0.374257 0.976662
vt 0.863509 0.506963
vt 0.865018 0.508472
vt 0.864845 0.737560
vt 0.861294 0.741111
vt 0.375000 0.000000
vt 0.615265 0.000000
vt 0.625000 0.013284
s 0
f 7/1/1 6/2/1 5/3/1 8/4/1
f 9/5/2 12/6/2 11/7/2 10/8/2
f 15/9/3 14/10/3 13/11/3 16/12/3
f 11/7/4 16/12/4 13/11/4 10/8/4
f 17/13/5 20/9/5 19/14/5 18/3/5
f 23/15/6 22/16/6 21/4/6 24/17/6
f 3/18/7 7/1/7 8/4/7 21/4/7 22/16/7 4/19/7
f 24/17/8 21/4/8 8/4/8 5/3/8 18/3/8 19/14/8
f 15/9/9 16/12/9 11/7/9 12/6/9 23/6/9 24/20/9 19/14/9 20/9/9
f 27/21/10 26/22/10 25/19/10 28/23/10
f 25/24/11 26/25/11 2/26/11 1/27/11 3/28/11 4/24/11
f 9/23/12 28/23/12 25/19/12 4/19/12 22/16/12 23/15/12 12/15/12
f 31/10/13 30/29/13 29/26/13 32/30/13
f 32/30/14 29/26/14 2/26/14 26/25/14 27/31/14
f 15/9/15 20/9/15 17/13/15 30/29/15 31/10/15 14/10/15
f 5/3/16 6/2/16 1/27/16 2/26/16 29/26/16 30/29/16 17/13/16 18/3/16
f 9/5/17 10/8/17 13/11/17 14/10/17 31/10/17 32/30/17 27/32/17 28/5/17
f 37/33/18 36/34/18 35/35/18 38/36/18
f 39/37/19 42/38/19 41/39/19 40/40/19
f 45/41/20 44/42/20 43/43/20 46/44/20
f 43/43/15 40/40/15 41/39/15 46/44/15
f 49/45/21 48/46/21 47/47/21 50/48/21
f 49/49/8 38/36/8 35/35/8 48/46/8
f 39/37/22 40/40/22 43/43/22 44/42/22 47/47/22 48/46/22 35/35/22 36/34/22
f 33/50/4 50/48/4 47/47/4 44/42/4 45/41/4 34/51/4 51/52/4 52/53/4
f 55/54/23 54/55/23 53/56/23 56/57/23
f 52/58/12 56/57/12 53/56/12 33/59/12
f 37/33/24 38/36/24 49/49/24 50/60/24 33/59/24 53/56/24 54/55/24
f 57/61/25 60/62/25 59/63/25 58/64/25
f 34/51/14 58/64/14 59/63/14 51/65/14
f 57/61/26 58/64/26 34/51/26 45/41/26 46/44/26 41/39/26 42/38/26
f 39/37/27 36/34/27 37/66/27 54/67/27 55/68/27 60/69/27 57/61/27 42/38/27
f 51/70/28 59/71/28 60/72/28 55/54/28 56/57/28 52/58/28
f 65/33/18 64/34/18 63/35/18 66/36/18
f 67/37/19 70/38/19 69/39/19 68/40/19
f 73/41/20 72/42/20 71/43/20 74/44/20
f 71/43/15 68/40/15 69/39/15 74/44/15
f 77/45/21 76/46/21 75/47/21 78/48/21
f 77/49/8 66/36/8 63/35/8 76/46/8
f 67/37/22 68/40/22 71/43/22 72/42/22 75/47/22 76/46/22 63/35/22 64/34/22
f 61/50/4 78/48/4 75/47/4 72/42/4 73/41/4 62/51/4 79/52/4 80/53/4
f 83/54/23 82/55/23 81/56/23 84/57/23
f 80/58/12 84/57/12 81/56/12 61/59/12
f 65/33/24 66/36/24 77/49/24 78/60/24 61/59/24 81/56/24 82/55/24
f 85/61/25 88/62/25 87/63/25 86/64/25
f 62/51/14 86/64/14 87/63/14 79/65/14
f 85/61/26 86/64/26 62/51/26 73/41/26 74/44/26 69/39/26 70/38/26
f 67/37/27 64/34/27 65/66/27 82/67/27 83/68/27 88/69/27 85/61/27 70/38/27
f 79/70/28 87/71/28 88/72/28 83/54/28 84/57/28 80/58/28
f 93/33/18 92/34/18 91/35/18 94/36/18
f 95/37/19 98/38/19 97/39/19 96/40/19
f 101/41/20 100/42/20 99/43/20 102/44/20
f 99/43/15 96/40/15 97/39/15 102/44/15
f 105/45/21 104/46/21 103/47/21 106/48/21
f 105/49/8 94/36/8 91/35/8 104/46/8
f 95/37/22 96/40/22 99/43/22 100/42/22 103/47/22 104/46/22 91/35/22 92/34/22
f 89/50/4 106/48/4 103/47/4 100/42/4 101/41/4 90/51/4 107/52/4 108/53/4
f 111/54/23 110/55/23 109/56/23 112/57/23
f 108/58/12 112/57/12 109/56/12 89/59/12
f 93/33/24 94/36/24 105/49/24 106/60/24 89/59/24 109/56/24 110/55/24
f 113/61/25 116/62/25 115/63/25 114/64/25
f 90/51/14 114/64/14 115/63/14 107/65/14
f 113/61/26 114/64/26 90/51/26 101/41/26 102/44/26 97/39/26 98/38/26
f 95/37/27 92/34/27 93/66/27 110/67/27 111/68/27 116/69/27 113/61/27 98/38/27
f 107/70/28 115/71/28 116/72/28 111/54/28 112/57/28 108/58/28
f 121/33/18 120/34/18 119/35/18 122/36/18
f 123/37/19 126/38/19 125/39/19 124/40/19
f 129/41/20 128/42/20 127/43/20 130/44/20
f 127/43/15 124/40/15 125/39/15 130/44/15
f 133/45/21 132/46/21 131/47/21 134/48/21
f 133/49/8 122/36/8 119/35/8 132/46/8
f 123/37/22 124/40/22 127/43/22 128/42/22 131/47/22 132/46/22 119/35/22 120/34/22
f 117/50/4 134/48/4 131/47/4 128/42/4 129/41/4 118/51/4 135/52/4 136/53/4
f 139/54/23 138/55/23 137/56/23 140/57/23
f 136/58/12 140/57/12 137/56/12 117/59/12
f 121/33/24 122/36/24 133/49/24 134/60/24 117/59/24 137/56/24 138/55/24
f 141/61/25 144/62/25 143/63/25 142/64/25
f 118/51/14 142/64/14 143/63/14 135/65/14
f 141/61/26 142/64/26 118/51/26 129/41/26 130/44/26 125/39/26 126/38/26
f 123/37/27 120/34/27 121/66/27 138/67/27 139/68/27 144/69/27 141/61/27 126/38/27
f 135/70/28 143/71/28 144/72/28 139/54/28 140/57/28 136/58/28
