# Blender 5.1.2
# www.blender.org
mtllib keykit seal.mtl
o Cone
o Cube.002
v 0.405836 0.016825 -0.329609
v -0.436079 0.016825 0.333946
v -0.436079 0.016825 -0.329609
v 0.405836 0.016825 0.333946
v -0.436079 0.167013 -0.329609
v -0.436079 0.167013 0.333946
v 0.405836 0.167013 0.333946
v 0.405836 0.167013 -0.329609
v -0.560426 0.016825 0.424528
v -0.560426 0.167013 0.424528
v 0.527298 0.016825 0.422426
v 0.527298 0.167013 0.422426
v -0.563579 0.167013 0.423441
v -0.576817 0.165243 0.418877
v -0.567456 0.167013 0.426255
v -0.576817 0.165243 -0.432224
v -0.563579 0.167013 -0.442658
v 0.527028 0.165362 -0.448931
v 0.539378 0.167013 -0.439198
v -0.563579 0.167013 -0.442658
v -0.555619 0.165362 -0.448931
v 0.538729 0.016825 -0.439709
v 0.527028 0.018389 -0.448931
v -0.555619 0.018389 -0.448931
v -0.567320 0.016825 -0.439709
v -0.576817 0.018414 0.418877
v -0.564927 0.016825 0.422976
v -0.568410 0.016825 0.425503
v -0.567320 0.016825 -0.439709
v -0.576817 0.018414 -0.432224
v -0.560426 0.016825 0.424528
v -0.554497 0.020367 0.436469
v -0.568390 0.016825 0.425519
v 0.520325 0.020367 0.436469
v 0.527298 0.016825 0.422426
v 0.539060 0.016825 0.421702
v -0.554497 0.164159 0.436469
v -0.560426 0.167013 0.424528
v -0.567436 0.167013 0.426270
v 0.527298 0.167013 0.422426
v 0.520325 0.164159 0.436469
v 0.535424 0.167013 0.424568
v 0.546574 0.164050 0.415780
v 0.527298 0.167013 0.422426
v 0.535444 0.167013 0.424553
v 0.539378 0.167013 -0.439198
v 0.546574 0.164050 -0.433526
v 0.527298 0.016825 0.422426
v 0.546574 0.021241 0.415780
v 0.539080 0.016825 0.421687
v 0.546574 0.021241 -0.433526
v 0.538729 0.016825 -0.439709
vn 1.0000 -0.0000 -0.0000
vn -0.0000 -0.0000 1.0000
vn -1.0000 -0.0000 -0.0000
vn -0.0000 -0.0000 -1.0000
vn -0.0896 0.9883 -0.1234
vn -0.1325 0.9912 -0.0000
vn 0.0003 0.9794 -0.2021
vn -0.0000 -0.9859 -0.1672
vn -0.0896 -0.9883 -0.1234
vn -0.1470 -0.9891 0.0002
vn -0.6190 -0.0000 -0.7854
vn 0.0334 -0.9626 0.2689
vn 0.0155 -0.9677 0.2518
vn 0.0003 -0.9648 0.2631
vn -0.0000 -1.0000 -0.0000
vn 0.0517 0.9768 0.2079
vn -0.0466 0.9832 0.1767
vn 0.0002 0.9767 0.2146
vn -0.0000 1.0000 -0.0000
vn -0.6190 -0.0000 0.7854
vn 0.0641 0.9673 -0.2455
vn 0.2185 0.9758 0.0015
vn -0.0395 -0.7755 -0.6301
vn 0.3097 -0.9508 0.0021
vn 0.6190 -0.0000 0.7854
vn 0.6190 -0.0000 -0.7854
vt 0.561840 0.000000
vt 0.438160 0.000000
vt 0.438160 0.250000
vt 0.561840 0.250000
vt 0.438160 0.500000
vt 0.561840 0.500000
vt 0.438160 0.750000
vt 0.561840 0.750000
vt 0.438160 1.000000
vt 0.561840 1.000000
vt 0.871816 0.746579
vt 0.873762 0.746372
vt 0.872198 0.747894
vt 0.625000 0.004967
vt 0.625009 0.248237
vt 0.622054 0.245283
vt 0.622054 0.004967
vt 0.625018 0.251491
vt 0.625839 0.500154
vt 0.623670 0.497100
vt 0.622279 0.254745
vt 0.374418 0.501440
vt 0.127152 0.502593
vt 0.129773 0.499944
vt 0.375306 0.497100
vt 0.377577 0.254745
vt 0.126238 0.746372
vt 0.127986 0.746558
vt 0.127686 0.747135
vt 0.125024 0.504743
vt 0.377646 0.004967
vt 0.377646 0.245283
vt 0.374988 0.249522
vt 0.128648 0.746629
vt 0.129967 0.750000
vt 0.127689 0.747139
vt 0.375753 0.752193
vt 0.370710 0.746035
vt 0.374357 0.746458
vt 0.156320 0.721052
vt 0.343680 0.721052
vt 0.620248 0.000000
vt 0.625000 0.002345
vt 0.625000 0.002880
vt 0.628004 0.748165
vt 0.622352 0.752193
vt 0.625955 0.747571
vt 0.625000 0.995033
vt 0.620248 0.995033
vt 0.872195 0.747897
vt 0.871352 0.746629
vt 0.843680 0.721052
vt 0.629290 0.746035
vt 0.656320 0.721052
vt 0.375000 0.003092
vt 0.380896 0.000000
vt 0.625000 0.002884
vt 0.375000 0.003096
vt 0.380896 0.995033
vt 0.620067 0.744159
vt 0.628217 0.746035
vt 0.625953 0.747565
vt 0.625839 0.500154
vt 0.620067 0.504350
vt 0.872010 0.501746
vt 0.843680 0.533692
vt 0.656320 0.533692
vt 0.380514 0.744159
vt 0.374358 0.746452
vt 0.382352 0.504350
vt 0.343680 0.533692
vt 0.156320 0.533692
s 0
usemtl 
f 6/1/1 2/2/1 3/3/1 5/4/1
f 5/4/2 3/3/2 1/5/2 8/6/2
f 1/5/3 4/7/3 7/8/3 8/6/3
f 4/7/4 2/9/4 6/10/4 7/8/4
f 13/11/5 14/12/5 15/13/5
f 13/14/6 17/15/6 16/16/6 14/17/6
f 20/18/7 19/19/7 18/20/7 21/21/7
f 22/22/8 25/23/8 24/24/8 23/25/8
f 24/26/4 21/21/4 18/20/4 23/25/4
f 26/27/9 27/28/9 28/29/9
f 29/23/10 27/28/10 26/27/10 30/30/10
f 26/31/3 14/17/3 16/16/3 30/32/3
f 29/33/11 30/32/11 16/16/11 17/15/11 20/15/11 21/21/11 24/26/11 25/33/11
f 31/34/12 32/35/12 33/36/12
f 34/37/13 35/38/13 36/39/13
f 34/37/14 32/35/14 31/34/14 35/38/14
f 31/34/15 33/36/15 28/29/15 27/28/15 9/34/15
f 11/38/15 35/38/15 31/34/15 9/34/15 2/40/15 4/41/15
f 37/42/16 38/43/16 39/44/16
f 40/45/17 41/46/17 42/47/17
f 40/45/18 38/48/18 37/49/18 41/46/18
f 13/11/19 15/13/19 39/50/19 38/51/19 10/51/19
f 6/52/19 10/51/19 38/51/19 40/45/19 12/53/19 7/54/19
f 33/55/20 32/56/20 37/42/20 39/44/20 15/57/20 14/17/20 26/31/20 28/58/20
f 34/37/2 41/46/2 37/49/2 32/59/2
f 43/60/21 44/61/21 45/62/21
f 46/63/22 44/61/22 43/60/22 47/64/22
f 40/53/19 42/47/19 45/62/19 44/61/19 12/53/19
f 7/54/19 12/53/19 44/61/19 46/63/19 19/19/19 20/65/19 17/65/19 13/11/19 10/51/19 6/52/19 5/66/19 8/67/19
f 48/38/23 49/68/23 50/69/23
f 51/70/24 49/68/24 48/38/24 52/22/24
f 48/38/15 50/69/15 36/39/15 35/38/15 11/38/15
f 50/69/25 49/68/25 43/60/25 45/62/25 42/47/25 41/46/25 34/37/25 36/39/25
f 2/40/15 9/34/15 27/28/15 29/23/15 25/23/15 22/22/15 52/22/15 48/38/15 11/38/15 4/41/15 1/71/15 3/72/15
f 51/70/1 47/64/1 43/60/1 49/68/1
f 22/22/26 23/25/26 18/20/26 19/19/26 46/19/26 47/64/26 51/70/26 52/22/26
o Cube.004
v -0.112575 -0.001635 0.291435
v -0.045295 0.040283 0.446675
v 0.075444 -0.001635 0.291435
v 0.011226 0.040283 0.446534
v 0.075444 0.186384 0.291435
v -0.112575 0.186384 0.291435
v 0.075444 -0.001635 0.472128
v 0.075444 0.186384 0.472128
v -0.112575 -0.001635 0.471267
v -0.112575 0.186384 0.471267
v 0.066149 0.184759 0.479453
v -0.102188 0.184759 0.479453
v 0.066149 0.000326 0.479453
v -0.102188 0.000326 0.479453
v -0.039591 0.102727 0.291435
v -0.037836 0.093906 0.291435
v -0.039148 0.098230 0.291435
v -0.039148 0.107224 0.291435
v -0.032840 0.086428 0.291435
v -0.035706 0.089921 0.291435
v -0.037836 0.111548 0.291435
v -0.035706 0.115533 0.291435
v -0.032840 0.119026 0.291435
v -0.016540 0.125778 0.291435
v -0.014699 0.125596 0.291435
v 0.002625 0.115533 0.291435
v -0.000241 0.119026 0.291435
v -0.003734 0.121893 0.291435
v -0.007719 0.124023 0.291435
v -0.012043 0.125335 0.291435
v -0.029347 0.121893 0.291435
v -0.025362 0.124023 0.291435
v -0.021037 0.125335 0.291435
v -0.029347 0.083561 0.291435
v -0.025362 0.081431 0.291435
v -0.016540 0.079676 0.291435
v -0.021037 0.080119 0.291435
v -0.012043 0.080119 0.291435
v -0.007719 0.081431 0.291435
v -0.003734 0.083561 0.291435
v -0.000241 0.086428 0.291435
v 0.004756 0.111548 0.291435
v 0.006510 0.102727 0.291435
v 0.006067 0.098230 0.291435
v 0.006067 0.107224 0.291435
v 0.002625 0.089921 0.291435
v 0.004756 0.093906 0.291435
v -0.035706 0.115831 0.479453
v -0.032840 0.119324 0.479453
v -0.029347 0.122191 0.479453
v -0.025362 0.124321 0.479453
v -0.017267 0.126004 0.479453
v -0.021037 0.125633 0.479453
v -0.016540 0.126076 0.479453
v -0.007719 0.124321 0.479453
v -0.012043 0.125633 0.479453
v -0.000241 0.086726 0.479453
v 0.006510 0.103025 0.479453
v 0.006067 0.107522 0.479453
v 0.004756 0.094204 0.479453
v 0.006067 0.098528 0.479453
v 0.004756 0.111846 0.479453
v -0.003734 0.083859 0.479453
v 0.002625 0.090219 0.479453
v 0.002625 0.115831 0.479453
v -0.000241 0.119324 0.479453
v -0.003734 0.122191 0.479453
v -0.039148 0.098528 0.479453
v -0.039591 0.103025 0.479453
v -0.039148 0.107522 0.479453
v -0.037836 0.111846 0.479453
v -0.035706 0.090219 0.479453
v -0.037836 0.094204 0.479453
v -0.032840 0.086726 0.479453
v -0.045214 0.040283 0.479453
v 0.011308 0.040283 0.479453
v -0.029704 0.084152 0.479453
v -0.004041 0.083695 0.479453
v -0.012043 0.080388 0.460771
v -0.016540 0.079945 0.460626
v -0.007719 0.081700 0.461224
v -0.004069 0.083652 0.461905
v -0.029745 0.084158 0.462148
v -0.029347 0.083832 0.462032
v -0.025362 0.081700 0.461268
v -0.021037 0.080388 0.460794
vn -0.0000 -0.0000 -1.0000
vn 1.0000 -0.0000 -0.0000
vn -1.0000 -0.0000 -0.0000
vn -0.0005 0.9787 0.2051
vn -0.0000 1.0000 -0.0000
vn -0.0006 -0.9695 0.2453
vn 0.6190 -0.0000 0.7854
vn -0.0000 -1.0000 -0.0000
vn -0.0000 -0.0000 1.0000
vn -0.6190 -0.0000 0.7854
vn -0.0980 0.9952 -0.0016
vn -0.2903 0.9569 -0.0015
vn -0.4714 0.8819 -0.0014
vn -0.6344 0.7730 -0.0012
vn -0.7730 0.6344 -0.0010
vn -0.8819 0.4714 -0.0007
vn -0.9569 0.2903 -0.0005
vn -0.9952 0.0980 -0.0002
vn -0.9952 -0.0980 0.0002
vn -0.9569 -0.2903 0.0005
vn -0.8819 -0.4714 0.0007
vn -0.7730 -0.6344 0.0010
vn -0.6344 -0.7730 0.0012
vn -0.4714 -0.8819 0.0014
vn -0.2903 -0.9569 0.0015
vn -0.0980 -0.9952 0.0016
vn 0.0980 -0.9952 0.0016
vn 0.2903 -0.9569 0.0015
vn 0.4714 -0.8819 0.0014
vn 0.6344 -0.7730 0.0012
vn 0.7730 -0.6344 0.0010
vn 0.8819 -0.4714 0.0007
vn 0.9569 -0.2903 0.0005
vn 0.9952 -0.0980 0.0002
vn 0.9952 0.0980 -0.0002
vn 0.9569 0.2903 -0.0005
vn 0.8819 0.4714 -0.0007
vn 0.7730 0.6344 -0.0010
vn 0.6344 0.7730 -0.0012
vn 0.4714 0.8819 -0.0014
vn 0.2903 0.9569 -0.0015
vn 0.0980 0.9952 -0.0016
vn 0.0024 -0.3333 0.9428
vn -0.9428 -0.3333 0.0024
vn 0.9428 -0.3333 -0.0024
vt 0.543826 0.383672
vt 0.544174 0.380141
vt 0.625000 0.500000
vt 0.375000 0.500000
vt 0.375000 0.250000
vt 0.625000 0.250000
vt 0.544415 0.377693
vt 0.543826 0.371713
vt 0.542082 0.365964
vt 0.539250 0.360665
vt 0.535438 0.356020
vt 0.530794 0.352209
vt 0.525495 0.349376
vt 0.519745 0.347632
vt 0.513766 0.347043
vt 0.507786 0.347632
vt 0.502037 0.349376
vt 0.496738 0.352209
vt 0.492093 0.356020
vt 0.488282 0.360665
vt 0.485449 0.365964
vt 0.483705 0.371713
vt 0.483116 0.377693
vt 0.483705 0.383672
vt 0.485449 0.389422
vt 0.488282 0.394720
vt 0.492093 0.399365
vt 0.496738 0.403177
vt 0.502037 0.406009
vt 0.507786 0.407753
vt 0.513766 0.408342
vt 0.519745 0.407753
vt 0.525495 0.406009
vt 0.530794 0.403177
vt 0.535438 0.399365
vt 0.539250 0.394720
vt 0.542082 0.389422
vt 0.625000 0.740259
vt 0.375000 0.740259
vt 0.375000 0.010885
vt 0.625000 0.010885
vt 0.626373 0.746253
vt 0.625239 0.985950
vt 0.623075 0.985950
vt 0.626888 0.758239
vt 0.875000 0.500000
vt 0.875000 0.739115
vt 0.372677 0.758239
vt 0.139289 0.750479
vt 0.125000 0.739115
vt 0.125000 0.500000
vt 0.492183 0.892142
vt 0.496912 0.896020
vt 0.502298 0.898901
vt 0.508136 0.900675
vt 0.514204 0.901274
vt 0.520272 0.900675
vt 0.526111 0.898901
vt 0.531498 0.896020
vt 0.536229 0.892142
vt 0.540121 0.887417
vt 0.543026 0.882026
vt 0.544830 0.876177
vt 0.545358 0.871076
vt 0.377374 0.985950
vt 0.545460 0.870094
vt 0.544889 0.864011
vt 0.543136 0.858161
vt 0.540266 0.852771
vt 0.536386 0.848046
vt 0.531646 0.844168
vt 0.526228 0.841287
vt 0.520342 0.839512
vt 0.514217 0.838913
vt 0.508092 0.839512
vt 0.502206 0.841287
vt 0.496787 0.844168
vt 0.492045 0.848046
vt 0.488163 0.852771
vt 0.487942 0.853185
vt 0.428675 0.832423
vt 0.429644 0.908880
vt 0.488690 0.887900
vt 0.377608 0.000000
vt 0.622840 0.000000
vt 0.968750 0.602166
vt 0.968750 0.795359
vt 1.000000 0.795360
vt 1.000000 0.602332
vt 0.937500 0.601646
vt 0.937500 0.795357
vt 0.968750 0.602166
vt 0.906250 0.580845
vt 0.906250 0.795353
vt 0.937500 0.601646
vt 0.908878 0.600866
vt 0.908654 0.580846
vt 0.875000 0.580840
vt 0.875000 0.795348
vt 0.906250 0.795353
vt 0.843750 0.580834
vt 0.843750 0.795341
vt 0.875000 0.795348
vt 0.875000 0.580840
vt 0.812500 0.580827
vt 0.812500 0.795334
vt 0.843750 0.580834
vt 0.781250 0.580819
vt 0.781250 0.795326
vt 0.812500 0.795334
vt 0.750000 0.580811
vt 0.750000 0.795318
vt 0.718750 0.580803
vt 0.718750 0.795310
vt 0.750000 0.795318
vt 0.687500 0.580795
vt 0.687500 0.795302
vt 0.718750 0.580803
vt 0.687500 0.580795
vt 0.656250 0.580787
vt 0.656250 0.795295
vt 0.625000 0.580781
vt 0.625000 0.795289
vt 0.656250 0.795295
vt 0.656250 0.580787
vt 0.593750 0.580776
vt 0.593750 0.795284
vt 0.625000 0.795289
vt 0.625000 0.580781
vt 0.562500 0.580772
vt 0.562500 0.795280
vt 0.531250 0.795277
vt 0.562500 0.795280
vt 0.562500 0.580772
vt 0.531250 0.580770
vt 0.500000 0.580769
vt 0.500000 0.795277
vt 0.512795 0.795277
vt 0.531250 0.580770
vt 0.468750 0.580770
vt 0.468750 0.795277
vt 0.500000 0.580769
vt 0.494952 0.580769
vt 0.437500 0.795280
vt 0.468750 0.580770
vt 0.437500 0.580772
vt 0.406250 0.795284
vt 0.437500 0.795280
vt 0.406250 0.580776
vt 0.375000 0.795289
vt 0.406250 0.795284
vt 0.406250 0.580776
vt 0.375000 0.580781
vt 0.343750 0.795295
vt 0.343750 0.580787
vt 0.312500 0.795302
vt 0.343750 0.580787
vt 0.312500 0.580795
vt 0.281250 0.795310
vt 0.281250 0.580803
vt 0.250000 0.795318
vt 0.281250 0.795310
vt 0.281250 0.580803
vt 0.250000 0.580811
vt 0.218750 0.795326
vt 0.250000 0.795318
vt 0.218750 0.580819
vt 0.187500 0.795334
vt 0.218750 0.580819
vt 0.187500 0.580827
vt 0.156250 0.795341
vt 0.187500 0.795334
vt 0.156250 0.580834
vt 0.125000 0.795348
vt 0.156250 0.795341
vt 0.125000 0.580840
vt 0.097309 0.600588
vt 0.093750 0.600721
vt 0.093750 0.795353
vt 0.096943 0.580845
vt 0.062500 0.601596
vt 0.062500 0.795357
vt 0.031250 0.602140
vt 0.031250 0.795359
vt 0.062500 0.795357
vt 0.062500 0.601596
vt 0.000000 0.602332
vt 0.000000 0.795360
vt 0.031250 0.602140
vt 0.250000 0.358265
vt 0.250000 0.490000
vt 0.490000 0.250000
vt 0.359784 0.250000
vt 0.347223 0.268422
vt 0.330837 0.288749
vt 0.312409 0.308507
vt 0.292647 0.326939
vt 0.272311 0.343334
vt 0.252181 0.357064
vt 0.350218 0.110218
vt 0.285208 0.175553
vt 0.850217 0.110217
vt 0.990000 0.250000
vt 0.750000 0.490000
vt 0.610816 0.350816
vt 0.176510 0.284794
vt 0.110816 0.350816
s 0
usemtl 
f 82/73/27 77/74/27 57/75/27 55/76/27 53/77/27 58/78/27 76/79/27 85/80/27 84/81/27 83/82/27 75/83/27 74/84/27 73/85/27 70/86/27 67/87/27 69/88/27 68/89/27 72/90/27 71/91/27 86/92/27 87/93/27 89/94/27 88/95/27 90/96/27 91/97/27 92/98/27 93/99/27 98/100/27 99/101/27 96/102/27 95/103/27 97/104/27 94/105/27 78/106/27 79/107/27 80/108/27 81/109/27
f 76/79/27 58/78/27 57/75/27 77/74/27
f 55/76/28 57/75/28 60/110/28 59/111/28
f 61/112/29 62/113/29 58/78/29 53/77/29
f 60/114/30 62/115/30 64/116/30 63/117/30
f 60/110/31 57/75/31 58/118/31 62/119/31
f 65/120/32 66/121/32 61/122/32 59/111/32
f 59/111/33 60/110/33 63/117/33 65/120/33
f 53/123/34 55/76/34 59/111/34 61/122/34
f 126/124/35 124/125/35 125/126/35 120/127/35 121/128/35 122/129/35 123/130/35 100/131/35 101/132/35 102/133/35 103/134/35 105/135/35 104/136/35 64/116/35 66/137/35 65/120/35 63/117/35 106/138/35 108/139/35 107/140/35 119/141/35 118/142/35 117/143/35 114/144/35 111/145/35 110/146/35 113/147/35 112/148/35 116/149/35 109/150/35 115/151/35 130/152/35 128/153/35 127/154/35 129/155/35
f 64/116/35 104/136/35 106/138/35 63/117/35
f 66/156/36 64/157/36 62/113/36 61/112/36
f 131/158/37 90/159/37 88/160/37 132/161/37
f 133/162/38 91/163/38 90/159/38 131/164/38
f 115/165/39 92/166/39 91/163/39 133/167/39 134/168/39 130/169/39
f 109/170/40 93/171/40 92/172/40 115/165/40
f 116/173/41 98/174/41 93/175/41 109/176/41
f 112/177/42 99/178/42 98/174/42 116/179/42
f 113/180/43 96/181/43 99/182/43 112/177/43
f 110/183/44 95/184/44 96/181/44 113/180/44
f 111/185/45 97/186/45 95/187/45 110/183/45
f 114/188/46 94/189/46 97/186/46 111/190/46
f 94/189/47 114/191/47 117/192/47 78/193/47
f 118/194/48 79/195/48 78/196/48 117/197/48
f 119/198/49 80/199/49 79/200/49 118/201/49
f 107/202/50 81/203/50 80/199/50 119/198/50
f 82/204/51 81/205/51 107/206/51 108/207/51
f 106/208/52 76/209/52 77/210/52 82/204/52 108/211/52
f 105/212/53 85/213/53 76/209/53 106/214/53 104/215/53
f 84/216/54 85/213/54 105/217/54 103/218/54
f 83/219/55 84/220/55 103/218/55 102/221/55
f 75/222/56 83/223/56 102/224/56 101/225/56
f 74/226/57 75/222/57 101/225/57 100/227/57
f 73/228/58 74/226/58 100/229/58 123/230/58
f 70/231/59 73/228/59 123/230/59 122/232/59
f 67/233/60 70/234/60 122/235/60 121/236/60
f 69/237/61 67/238/61 121/236/61 120/239/61
f 68/240/62 69/237/62 120/241/62 125/242/62
f 72/243/63 68/244/63 125/242/63 124/245/63
f 71/246/64 72/247/64 124/245/64 126/248/64
f 135/249/65 136/250/65 86/251/65 71/246/65 126/248/65 129/252/65
f 137/253/66 87/254/66 86/251/66 136/250/66
f 138/255/67 89/256/67 87/257/67 137/258/67
f 132/259/68 88/260/68 89/256/68 138/261/68
f 135/262/69 54/263/69 56/264/69 134/265/69 133/266/69 131/267/69 132/268/69 138/269/69 137/270/69 136/271/69
f 56/264/70 128/272/70 130/273/70 134/265/70
f 128/274/31 56/275/31 54/276/31 127/277/31
f 135/262/71 129/278/71 127/279/71 54/263/71
o Cube.005
v -0.081607 0.032176 0.448606
v -0.081607 0.156544 0.448606
v -0.081607 0.032176 0.465326
v -0.081607 0.156544 0.465326
v 0.042761 0.032176 0.448606
v 0.042761 0.156544 0.448606
v 0.042761 0.032176 0.465326
v 0.042761 0.156544 0.465326
vn -1.0000 -0.0000 -0.0000
vn -0.0000 -0.0000 1.0000
vn 1.0000 -0.0000 -0.0000
vn -0.0000 -0.0000 -1.0000
vn -0.0000 -1.0000 -0.0000
vn -0.0000 1.0000 -0.0000
vt 0.375000 0.000000
vt 0.625000 0.000000
vt 0.625000 0.250000
vt 0.375000 0.250000
vt 0.625000 0.500000
vt 0.375000 0.500000
vt 0.625000 0.750000
vt 0.375000 0.750000
vt 0.625000 1.000000
vt 0.375000 1.000000
vt 0.125000 0.500000
vt 0.125000 0.750000
vt 0.875000 0.500000
vt 0.875000 0.750000
s 0
f 139/280/72 141/283/72 142/282/72 140/281/72
f 141/283/73 145/285/73 146/284/73 142/282/73
f 145/285/74 143/287/74 144/286/74 146/284/74
f 143/287/75 139/289/75 140/288/75 144/286/75
f 141/290/76 139/291/76 143/287/76 145/285/76
f 146/284/77 144/286/77 140/293/77 142/292/77
